<svg width="290" height="27" viewBox="0 0 290 27" fill="none" xmlns="http://www.w3.org/2000/svg">
<g opacity="0.2">
<path d="M0.756 21V1.176H7.836C12.468 1.176 15.54 3.264 15.54 9.48V12.696C15.54 18.888 12.444 21 7.836 21H0.756ZM2.508 19.488H7.788C12.012 19.488 13.716 17.52 13.716 12.744V9.432C13.716 4.632 12.012 2.688 7.788 2.688H2.508V19.488ZM18.6733 14.328V12.048C18.6733 7.776 20.8573 5.16 25.1533 5.16C29.0173 5.16 31.3693 7.296 31.3693 11.784V13.416H20.4013V14.4C20.4013 17.976 22.0573 19.752 25.1293 19.752C27.7453 19.752 29.2093 18.48 29.4253 16.224L29.4493 15.912H31.2013V16.152C30.9133 19.152 28.9453 21.24 25.1293 21.24C20.8573 21.24 18.6733 18.648 18.6733 14.328ZM20.4013 12.072H29.6413V11.28C29.5693 7.92 27.8173 6.648 25.1533 6.648C22.0333 6.648 20.4013 8.376 20.4013 12V12.072ZM42.4054 12.672C45.2854 13.536 46.3174 14.808 46.3174 16.872C46.3174 19.368 44.7334 21.24 40.6534 21.24C35.8054 21.24 34.0534 19.128 34.0534 16.032V15.48H35.7814V16.008C35.7814 18.672 37.2934 19.776 40.6294 19.776C43.2694 19.776 44.5894 18.816 44.5894 16.968C44.5894 15.624 43.8694 14.736 41.6374 14.04L38.0854 12.864C35.6854 12.192 34.5814 11.016 34.5814 9.144C34.5814 6.96 36.2614 5.16 39.9814 5.16C44.4214 5.16 46.0534 7.2 46.0534 10.056V10.488H44.3254V10.056C44.3254 7.56 42.7654 6.624 40.0294 6.624C37.8934 6.624 36.3094 7.44 36.3094 9.048C36.3094 10.176 36.8854 10.848 38.7334 11.448L42.4054 12.672ZM49.9331 5.4H51.6131V21H49.9331V5.4ZM49.4531 2.16C49.4531 1.464 49.9571 0.935999 50.7731 0.935999C51.5651 0.935999 52.0691 1.464 52.0691 2.16C52.0691 2.784 51.5651 3.336 50.7731 3.336C49.9571 3.336 49.4531 2.784 49.4531 2.16ZM66.4987 20.352V18.432C65.9467 19.56 64.3867 21.24 61.4587 21.24C57.6667 21.24 55.3867 18.552 55.3867 14.52V11.856C55.3867 7.728 57.6907 5.16 61.4347 5.16C64.3867 5.16 65.8507 6.792 66.4987 7.872V5.4H68.1787V20.592C68.1787 24.624 66.9787 26.424 63.1867 26.424H56.1307V24.96H63.0427C65.7787 24.96 66.4987 23.784 66.4987 20.352ZM57.1147 14.472C57.1147 17.568 58.6507 19.752 61.7467 19.752C64.7467 19.752 66.4987 17.664 66.4987 14.496V11.904C66.4987 8.784 64.7947 6.648 61.7227 6.648C58.6027 6.648 57.1147 8.808 57.1147 11.928V14.472ZM74.3934 5.4V8.064C75.0894 6.72 76.5774 5.16 79.4574 5.16C82.7934 5.16 84.7374 7.2 84.7374 10.944V21H83.0334V11.088C83.0334 8.136 81.6654 6.624 79.0734 6.624C75.2094 6.624 74.3934 9.816 74.3934 11.4V21H72.7134V5.4H74.3934ZM103.116 21.24C98.388 21.24 96.036 19.128 96.036 15.6V15.384C96.036 13.08 97.164 11.448 99.156 10.848C97.26 10.224 96.204 8.712 96.204 6.552V6.312C96.204 3.792 98.196 0.935999 103.212 0.935999C107.676 0.935999 110.076 3.048 110.076 6.744V7.08H106.404V6.552C106.404 4.896 105.42 3.96 103.188 3.96C100.956 3.96 99.972 4.872 99.972 6.288V7.152C99.972 8.664 100.98 9.48 103.164 9.48H106.404V8.208H110.076V9.48H111.828V12.36H110.076V15.528C110.076 19.248 107.748 21.24 103.116 21.24ZM99.804 15.768C99.804 17.328 100.764 18.216 103.116 18.216C105.42 18.216 106.404 17.328 106.404 15.72V12.36H103.068C100.86 12.36 99.804 13.272 99.804 14.784V15.768ZM123.248 21V1.176H130.328C134.96 1.176 138.032 3.264 138.032 9.48V12.696C138.032 18.888 134.936 21 130.328 21H123.248ZM125 19.488H130.28C134.504 19.488 136.208 17.52 136.208 12.744V9.432C136.208 4.632 134.504 2.688 130.28 2.688H125V19.488ZM141.165 14.328V12.048C141.165 7.776 143.349 5.16 147.645 5.16C151.509 5.16 153.861 7.296 153.861 11.784V13.416H142.893V14.4C142.893 17.976 144.549 19.752 147.621 19.752C150.237 19.752 151.701 18.48 151.917 16.224L151.941 15.912H153.693V16.152C153.405 19.152 151.437 21.24 147.621 21.24C143.349 21.24 141.165 18.648 141.165 14.328ZM142.893 12.072H152.133V11.28C152.061 7.92 150.309 6.648 147.645 6.648C144.525 6.648 142.893 8.376 142.893 12V12.072ZM155.805 5.4H157.581L162.381 19.464L167.157 5.4H168.933L163.461 21H161.277L155.805 5.4ZM170.813 14.328V12.048C170.813 7.776 172.997 5.16 177.293 5.16C181.157 5.16 183.509 7.296 183.509 11.784V13.416H172.541V14.4C172.541 17.976 174.197 19.752 177.269 19.752C179.885 19.752 181.349 18.48 181.565 16.224L181.589 15.912H183.341V16.152C183.053 19.152 181.085 21.24 177.269 21.24C172.997 21.24 170.813 18.648 170.813 14.328ZM172.541 12.072H181.781V11.28C181.709 7.92 179.957 6.648 177.293 6.648C174.173 6.648 172.541 8.376 172.541 12V12.072ZM187.249 1.176H188.929V21H187.249V1.176ZM199.134 21.24C194.886 21.24 192.702 18.648 192.702 14.304V12.096C192.702 7.776 194.886 5.16 199.134 5.16C203.406 5.16 205.59 7.776 205.59 12.096V14.304C205.59 18.648 203.406 21.24 199.134 21.24ZM194.43 14.352C194.43 17.976 196.038 19.752 199.134 19.752C202.23 19.752 203.862 17.976 203.862 14.352V12.048C203.862 8.424 202.23 6.648 199.134 6.648C196.038 6.648 194.43 8.424 194.43 12.048V14.352ZM211.029 5.4V8.016C211.557 6.888 213.117 5.16 216.093 5.16C219.885 5.16 222.165 7.848 222.165 11.88V14.544C222.165 18.672 219.861 21.24 216.117 21.24C213.117 21.24 211.653 19.56 211.029 18.48V26.424H209.349V5.4H211.029ZM211.053 14.496C211.053 17.616 212.757 19.752 215.829 19.752C218.949 19.752 220.437 17.592 220.437 14.472V11.928C220.437 8.832 218.901 6.648 215.805 6.648C212.805 6.648 211.053 8.736 211.053 11.904V14.496ZM244.051 10.848C244.051 9.24 243.859 6.624 240.691 6.624C237.379 6.624 236.659 9.504 236.659 11.04V21H234.979V10.848C234.979 9.336 234.787 6.624 231.595 6.624C228.307 6.624 227.587 9.504 227.587 11.016V21H225.907V5.4H227.587V7.704C228.163 6.432 229.459 5.16 232.027 5.16C234.667 5.16 235.867 6.504 236.323 8.04C237.115 6.504 238.387 5.16 241.051 5.16C244.771 5.16 245.731 7.776 245.731 10.608V21H244.051V10.848ZM249.338 14.328V12.048C249.338 7.776 251.522 5.16 255.818 5.16C259.682 5.16 262.034 7.296 262.034 11.784V13.416H251.066V14.4C251.066 17.976 252.722 19.752 255.794 19.752C258.41 19.752 259.874 18.48 260.09 16.224L260.114 15.912H261.866V16.152C261.578 19.152 259.61 21.24 255.794 21.24C251.522 21.24 249.338 18.648 249.338 14.328ZM251.066 12.072H260.306V11.28C260.234 7.92 258.482 6.648 255.818 6.648C252.698 6.648 251.066 8.376 251.066 12V12.072ZM267.454 5.4V8.064C268.15 6.72 269.638 5.16 272.518 5.16C275.854 5.16 277.798 7.2 277.798 10.944V21H276.094V11.088C276.094 8.136 274.726 6.624 272.134 6.624C268.27 6.624 267.454 9.816 267.454 11.4V21H265.774V5.4H267.454ZM289.377 5.4V6.864H285.033V16.296C285.033 18.888 285.201 19.536 287.121 19.536H289.377V21H286.665C283.689 21 283.353 19.464 283.353 16.584V6.864H279.969V5.4H280.761C282.969 5.256 283.833 3.576 283.809 1.176H285.489C285.489 3.6 284.529 5.088 283.521 5.4H289.377Z" fill="#111113"/>
</g>
</svg>
