<svg width="200" height="96" viewBox="0 0 200 96" fill="none" xmlns="http://www.w3.org/2000/svg">
<g clip-path="url(#clip0_989_3548)">
<path fill-rule="evenodd" clip-rule="evenodd" d="M0.733333 37.3672C0.328325 37.3672 0 37.6955 0 38.1005V57.9005C0 58.3055 0.328325 58.6339 0.733334 58.6339H2.9469V42.4995C2.9469 42.297 3.11106 42.1328 3.31357 42.1328H6.33579C6.48674 42.1328 6.62227 42.2253 6.67726 42.3659L10.6034 52.4035C10.725 52.7143 11.1648 52.7143 11.2864 52.4035L15.2125 42.3659C15.2675 42.2253 15.403 42.1328 15.554 42.1328H18.5762C18.7787 42.1328 18.9429 42.297 18.9429 42.4995V58.6339H21.2667C21.6717 58.6339 22 58.3055 22 57.9005V38.1005C22 37.6955 21.6717 37.3672 21.2667 37.3672H0.733333ZM15.8999 58.6339V50.2682C15.8999 49.8636 15.3409 49.7572 15.1922 50.1335L11.8343 58.6339H15.8999ZM10.0555 58.6339L6.69752 50.1335C6.54887 49.7572 5.98983 49.8636 5.98983 50.2682V58.6339H10.0555Z" fill="#FF9900"/>
<path d="M35.728 58V38.176H39.976L45.064 51.184L50.152 38.176H54.4V58H50.848V45.424L45.88 58H44.248L39.28 45.424V58H35.728ZM65.7055 58V55.624C64.4815 57.52 62.4415 58.24 60.2095 58.24C57.3055 58.24 55.5535 56.896 55.5535 54.136C55.5535 51.112 58.1695 49.984 60.4975 49.36L62.2015 48.928C64.2895 48.4 65.6095 48.04 65.6095 46.84V46.72C65.6095 45.904 64.9135 45.184 62.8975 45.184C60.5935 45.184 59.6815 46.048 59.6815 47.512V48.256H56.0575V47.8C56.0575 44.128 58.3855 42.16 62.8495 42.16C67.6255 42.16 69.2095 44.224 69.2095 47.416V58H65.7055ZM59.1775 53.704C59.1775 54.76 59.8735 55.216 61.3375 55.216C63.5935 55.216 65.2975 53.944 65.6095 51.784V49.96C65.2495 50.824 64.1455 51.064 62.8015 51.496L61.2655 51.904C59.8735 52.312 59.1775 52.768 59.1775 53.704ZM74.4458 42.4V44.728C75.1178 43.216 76.7738 42.16 78.8138 42.16C81.4058 42.16 83.4218 43.624 83.4218 47.512V49.48H79.7258V47.92C79.7258 46.072 79.0778 45.232 77.4698 45.232C75.1898 45.232 74.4458 46.816 74.4458 48.256V58H70.8218V42.4H74.4458ZM95.4782 42.4V45.52H90.9422V52.72C90.9422 54.424 91.3502 54.88 92.4062 54.88H95.4782V58H91.4702C88.2542 58 87.3662 56.392 87.3662 53.44V45.52H83.7422V42.4H85.3982C87.2462 42.256 87.7502 40.816 87.7022 38.176H91.3022C91.3022 40.264 90.9422 42.088 89.7422 42.4H95.4782ZM97.354 42.4H100.978V58H97.354V42.4ZM96.994 39.616C96.994 38.608 97.69 37.936 99.178 37.936C100.666 37.936 101.362 38.608 101.362 39.616C101.362 40.552 100.666 41.248 99.178 41.248C97.69 41.248 96.994 40.552 96.994 39.616ZM106.317 42.4V44.776C107.253 43.264 108.813 42.16 111.045 42.16C114.309 42.16 116.109 44.536 116.109 48.16V58H112.509V48.568C112.509 46.408 111.597 45.232 109.557 45.232C106.845 45.232 106.317 47.296 106.317 48.688V58H102.717V42.4H106.317ZM124.521 58V38.176H133.329C137.961 38.176 140.217 40.168 140.217 44.704V44.944C140.217 49.432 138.081 51.496 133.329 51.496H128.265V58H124.521ZM128.265 48.304H133.401C135.561 48.304 136.377 47.44 136.377 45.52V44.08C136.377 42.184 135.561 41.344 133.401 41.344H128.265V48.304ZM140.604 51.088V49.264C140.604 44.896 142.956 42.16 147.876 42.16C152.34 42.16 154.836 44.704 154.836 49.36V51.088H144.348V51.448C144.348 53.656 145.308 55.144 147.9 55.144C149.868 55.144 150.612 54.256 150.78 53.224L150.828 52.672H154.74L154.716 52.912C154.428 56.104 152.172 58.24 147.876 58.24C142.956 58.24 140.604 55.504 140.604 51.088ZM144.372 48.472H151.092L151.068 47.824C150.78 46.168 149.676 45.256 147.756 45.256C145.5 45.256 144.516 46.552 144.372 48.472ZM165.538 58V55.624C164.314 57.52 162.274 58.24 160.042 58.24C157.138 58.24 155.386 56.896 155.386 54.136C155.386 51.112 158.002 49.984 160.33 49.36L162.034 48.928C164.122 48.4 165.442 48.04 165.442 46.84V46.72C165.442 45.904 164.746 45.184 162.73 45.184C160.426 45.184 159.514 46.048 159.514 47.512V48.256H155.89V47.8C155.89 44.128 158.218 42.16 162.682 42.16C167.458 42.16 169.042 44.224 169.042 47.416V58H165.538ZM159.01 53.704C159.01 54.76 159.706 55.216 161.17 55.216C163.426 55.216 165.13 53.944 165.442 51.784V49.96C165.082 50.824 163.978 51.064 162.634 51.496L161.098 51.904C159.706 52.312 159.01 52.768 159.01 53.704ZM180.326 47.92C180.23 46.6 179.342 45.256 177.062 45.256C174.518 45.256 173.558 46.768 173.558 49V51.448C173.558 53.656 174.518 55.144 177.086 55.144C179.51 55.144 180.254 53.8 180.35 52.48L180.398 51.448H184.07L184.046 52.168C183.806 55.528 181.646 58.24 177.014 58.24C172.214 58.24 169.862 55.504 169.862 51.088V49.264C169.862 44.896 172.214 42.16 177.014 42.16C181.622 42.16 183.83 44.872 184.046 48.232L184.07 49H180.398L180.326 47.92ZM184.6 51.088V49.264C184.6 44.896 186.952 42.16 191.872 42.16C196.336 42.16 198.832 44.704 198.832 49.36V51.088H188.344V51.448C188.344 53.656 189.304 55.144 191.896 55.144C193.864 55.144 194.608 54.256 194.776 53.224L194.824 52.672H198.736L198.712 52.912C198.424 56.104 196.168 58.24 191.872 58.24C186.952 58.24 184.6 55.504 184.6 51.088ZM188.368 48.472H195.088L195.064 47.824C194.776 46.168 193.672 45.256 191.752 45.256C189.496 45.256 188.512 46.552 188.368 48.472Z" fill="#121214"/>
</g>
<defs>
<clipPath id="clip0_989_3548">
<rect width="200" height="96" fill="white"/>
</clipPath>
</defs>
</svg>
