<svg width="172" height="22" viewBox="0 0 172 22" fill="none" xmlns="http://www.w3.org/2000/svg">
<path d="M0.228 21V1.176H4.476L9.564 14.184L14.652 1.176H18.9V21H15.348V8.424L10.38 21H8.748L3.78 8.424V21H0.228ZM31.1655 21V18.624C29.9415 20.52 27.9015 21.24 25.6695 21.24C22.7655 21.24 21.0135 19.896 21.0135 17.136C21.0135 14.112 23.6295 12.984 25.9575 12.36L27.6615 11.928C29.7495 11.4 31.0695 11.04 31.0695 9.84V9.72C31.0695 8.904 30.3735 8.184 28.3575 8.184C26.0535 8.184 25.1415 9.048 25.1415 10.512V11.256H21.5175V10.8C21.5175 7.128 23.8455 5.16 28.3095 5.16C33.0855 5.16 34.6695 7.224 34.6695 10.416V21H31.1655ZM24.6375 16.704C24.6375 17.76 25.3335 18.216 26.7975 18.216C29.0535 18.216 30.7575 16.944 31.0695 14.784V12.96C30.7095 13.824 29.6055 14.064 28.2615 14.496L26.7255 14.904C25.3335 15.312 24.6375 15.768 24.6375 16.704ZM40.8658 5.4V7.728C41.5378 6.216 43.1938 5.16 45.2338 5.16C47.8258 5.16 49.8418 6.624 49.8418 10.512V12.48H46.1458V10.92C46.1458 9.072 45.4978 8.232 43.8898 8.232C41.6098 8.232 40.8658 9.816 40.8658 11.256V21H37.2418V5.4H40.8658ZM62.1382 5.4V8.52H57.6022V15.72C57.6022 17.424 58.0102 17.88 59.0662 17.88H62.1382V21H58.1302C54.9142 21 54.0262 19.392 54.0262 16.44V8.52H50.4022V5.4H52.0582C53.9062 5.256 54.4102 3.816 54.3622 1.176H57.9622C57.9622 3.264 57.6022 5.088 56.4022 5.4H62.1382ZM64.254 5.4H67.878V21H64.254V5.4ZM63.894 2.616C63.894 1.608 64.59 0.935999 66.078 0.935999C67.566 0.935999 68.262 1.608 68.262 2.616C68.262 3.552 67.566 4.248 66.078 4.248C64.59 4.248 63.894 3.552 63.894 2.616ZM74.1765 5.4V7.776C75.1125 6.264 76.6725 5.16 78.9045 5.16C82.1685 5.16 83.9685 7.536 83.9685 11.16V21H80.3685V11.568C80.3685 9.408 79.4565 8.232 77.4165 8.232C74.7045 8.232 74.1765 10.296 74.1765 11.688V21H70.5765V5.4H74.1765ZM92.8605 21V1.176H101.668C106.301 1.176 108.556 3.168 108.556 7.704V7.944C108.556 12.432 106.421 14.496 101.668 14.496H96.6045V21H92.8605ZM96.6045 11.304H101.741C103.9 11.304 104.717 10.44 104.717 8.52V7.08C104.717 5.184 103.9 4.344 101.741 4.344H96.6045V11.304ZM109.664 14.088V12.264C109.664 7.896 112.016 5.16 116.936 5.16C121.4 5.16 123.896 7.704 123.896 12.36V14.088H113.408V14.448C113.408 16.656 114.368 18.144 116.96 18.144C118.928 18.144 119.672 17.256 119.84 16.224L119.888 15.672H123.8L123.776 15.912C123.488 19.104 121.232 21.24 116.936 21.24C112.016 21.24 109.664 18.504 109.664 14.088ZM113.432 11.472H120.152L120.128 10.824C119.84 9.168 118.736 8.256 116.816 8.256C114.56 8.256 113.576 9.552 113.432 11.472ZM135.558 21V18.624C134.334 20.52 132.294 21.24 130.062 21.24C127.158 21.24 125.406 19.896 125.406 17.136C125.406 14.112 128.022 12.984 130.35 12.36L132.054 11.928C134.142 11.4 135.462 11.04 135.462 9.84V9.72C135.462 8.904 134.766 8.184 132.75 8.184C130.446 8.184 129.534 9.048 129.534 10.512V11.256H125.91V10.8C125.91 7.128 128.238 5.16 132.702 5.16C137.478 5.16 139.062 7.224 139.062 10.416V21H135.558ZM129.03 16.704C129.03 17.76 129.726 18.216 131.19 18.216C133.446 18.216 135.15 16.944 135.462 14.784V12.96C135.102 13.824 133.998 14.064 132.654 14.496L131.118 14.904C129.726 15.312 129.03 15.768 129.03 16.704ZM151.546 10.92C151.45 9.6 150.562 8.256 148.282 8.256C145.738 8.256 144.778 9.768 144.778 12V14.448C144.778 16.656 145.738 18.144 148.306 18.144C150.73 18.144 151.474 16.8 151.57 15.48L151.618 14.448H155.29L155.266 15.168C155.026 18.528 152.866 21.24 148.234 21.24C143.434 21.24 141.082 18.504 141.082 14.088V12.264C141.082 7.896 143.434 5.16 148.234 5.16C152.842 5.16 155.05 7.872 155.266 11.232L155.29 12H151.618L151.546 10.92ZM156.78 14.088V12.264C156.78 7.896 159.132 5.16 164.052 5.16C168.516 5.16 171.012 7.704 171.012 12.36V14.088H160.524V14.448C160.524 16.656 161.484 18.144 164.076 18.144C166.044 18.144 166.788 17.256 166.956 16.224L167.004 15.672H170.916L170.892 15.912C170.604 19.104 168.348 21.24 164.052 21.24C159.132 21.24 156.78 18.504 156.78 14.088ZM160.548 11.472H167.268L167.244 10.824C166.956 9.168 165.852 8.256 163.932 8.256C161.676 8.256 160.692 9.552 160.548 11.472Z" fill="#111113"/>
<path d="M0.228 21V1.176H4.476L9.564 14.184L14.652 1.176H18.9V21H15.348V8.424L10.38 21H8.748L3.78 8.424V21H0.228ZM31.1655 21V18.624C29.9415 20.52 27.9015 21.24 25.6695 21.24C22.7655 21.24 21.0135 19.896 21.0135 17.136C21.0135 14.112 23.6295 12.984 25.9575 12.36L27.6615 11.928C29.7495 11.4 31.0695 11.04 31.0695 9.84V9.72C31.0695 8.904 30.3735 8.184 28.3575 8.184C26.0535 8.184 25.1415 9.048 25.1415 10.512V11.256H21.5175V10.8C21.5175 7.128 23.8455 5.16 28.3095 5.16C33.0855 5.16 34.6695 7.224 34.6695 10.416V21H31.1655ZM24.6375 16.704C24.6375 17.76 25.3335 18.216 26.7975 18.216C29.0535 18.216 30.7575 16.944 31.0695 14.784V12.96C30.7095 13.824 29.6055 14.064 28.2615 14.496L26.7255 14.904C25.3335 15.312 24.6375 15.768 24.6375 16.704ZM40.8658 5.4V7.728C41.5378 6.216 43.1938 5.16 45.2338 5.16C47.8258 5.16 49.8418 6.624 49.8418 10.512V12.48H46.1458V10.92C46.1458 9.072 45.4978 8.232 43.8898 8.232C41.6098 8.232 40.8658 9.816 40.8658 11.256V21H37.2418V5.4H40.8658ZM62.1382 5.4V8.52H57.6022V15.72C57.6022 17.424 58.0102 17.88 59.0662 17.88H62.1382V21H58.1302C54.9142 21 54.0262 19.392 54.0262 16.44V8.52H50.4022V5.4H52.0582C53.9062 5.256 54.4102 3.816 54.3622 1.176H57.9622C57.9622 3.264 57.6022 5.088 56.4022 5.4H62.1382ZM64.254 5.4H67.878V21H64.254V5.4ZM63.894 2.616C63.894 1.608 64.59 0.935999 66.078 0.935999C67.566 0.935999 68.262 1.608 68.262 2.616C68.262 3.552 67.566 4.248 66.078 4.248C64.59 4.248 63.894 3.552 63.894 2.616ZM74.1765 5.4V7.776C75.1125 6.264 76.6725 5.16 78.9045 5.16C82.1685 5.16 83.9685 7.536 83.9685 11.16V21H80.3685V11.568C80.3685 9.408 79.4565 8.232 77.4165 8.232C74.7045 8.232 74.1765 10.296 74.1765 11.688V21H70.5765V5.4H74.1765ZM92.8605 21V1.176H101.668C106.301 1.176 108.556 3.168 108.556 7.704V7.944C108.556 12.432 106.421 14.496 101.668 14.496H96.6045V21H92.8605ZM96.6045 11.304H101.741C103.9 11.304 104.717 10.44 104.717 8.52V7.08C104.717 5.184 103.9 4.344 101.741 4.344H96.6045V11.304ZM109.664 14.088V12.264C109.664 7.896 112.016 5.16 116.936 5.16C121.4 5.16 123.896 7.704 123.896 12.36V14.088H113.408V14.448C113.408 16.656 114.368 18.144 116.96 18.144C118.928 18.144 119.672 17.256 119.84 16.224L119.888 15.672H123.8L123.776 15.912C123.488 19.104 121.232 21.24 116.936 21.24C112.016 21.24 109.664 18.504 109.664 14.088ZM113.432 11.472H120.152L120.128 10.824C119.84 9.168 118.736 8.256 116.816 8.256C114.56 8.256 113.576 9.552 113.432 11.472ZM135.558 21V18.624C134.334 20.52 132.294 21.24 130.062 21.24C127.158 21.24 125.406 19.896 125.406 17.136C125.406 14.112 128.022 12.984 130.35 12.36L132.054 11.928C134.142 11.4 135.462 11.04 135.462 9.84V9.72C135.462 8.904 134.766 8.184 132.75 8.184C130.446 8.184 129.534 9.048 129.534 10.512V11.256H125.91V10.8C125.91 7.128 128.238 5.16 132.702 5.16C137.478 5.16 139.062 7.224 139.062 10.416V21H135.558ZM129.03 16.704C129.03 17.76 129.726 18.216 131.19 18.216C133.446 18.216 135.15 16.944 135.462 14.784V12.96C135.102 13.824 133.998 14.064 132.654 14.496L131.118 14.904C129.726 15.312 129.03 15.768 129.03 16.704ZM151.546 10.92C151.45 9.6 150.562 8.256 148.282 8.256C145.738 8.256 144.778 9.768 144.778 12V14.448C144.778 16.656 145.738 18.144 148.306 18.144C150.73 18.144 151.474 16.8 151.57 15.48L151.618 14.448H155.29L155.266 15.168C155.026 18.528 152.866 21.24 148.234 21.24C143.434 21.24 141.082 18.504 141.082 14.088V12.264C141.082 7.896 143.434 5.16 148.234 5.16C152.842 5.16 155.05 7.872 155.266 11.232L155.29 12H151.618L151.546 10.92ZM156.78 14.088V12.264C156.78 7.896 159.132 5.16 164.052 5.16C168.516 5.16 171.012 7.704 171.012 12.36V14.088H160.524V14.448C160.524 16.656 161.484 18.144 164.076 18.144C166.044 18.144 166.788 17.256 166.956 16.224L167.004 15.672H170.916L170.892 15.912C170.604 19.104 168.348 21.24 164.052 21.24C159.132 21.24 156.78 18.504 156.78 14.088ZM160.548 11.472H167.268L167.244 10.824C166.956 9.168 165.852 8.256 163.932 8.256C161.676 8.256 160.692 9.552 160.548 11.472Z" fill="#FFC581"/>
<path d="M0.228 21V1.176H4.476L9.564 14.184L14.652 1.176H18.9V21H15.348V8.424L10.38 21H8.748L3.78 8.424V21H0.228ZM31.1655 21V18.624C29.9415 20.52 27.9015 21.24 25.6695 21.24C22.7655 21.24 21.0135 19.896 21.0135 17.136C21.0135 14.112 23.6295 12.984 25.9575 12.36L27.6615 11.928C29.7495 11.4 31.0695 11.04 31.0695 9.84V9.72C31.0695 8.904 30.3735 8.184 28.3575 8.184C26.0535 8.184 25.1415 9.048 25.1415 10.512V11.256H21.5175V10.8C21.5175 7.128 23.8455 5.16 28.3095 5.16C33.0855 5.16 34.6695 7.224 34.6695 10.416V21H31.1655ZM24.6375 16.704C24.6375 17.76 25.3335 18.216 26.7975 18.216C29.0535 18.216 30.7575 16.944 31.0695 14.784V12.96C30.7095 13.824 29.6055 14.064 28.2615 14.496L26.7255 14.904C25.3335 15.312 24.6375 15.768 24.6375 16.704ZM40.8658 5.4V7.728C41.5378 6.216 43.1938 5.16 45.2338 5.16C47.8258 5.16 49.8418 6.624 49.8418 10.512V12.48H46.1458V10.92C46.1458 9.072 45.4978 8.232 43.8898 8.232C41.6098 8.232 40.8658 9.816 40.8658 11.256V21H37.2418V5.4H40.8658ZM62.1382 5.4V8.52H57.6022V15.72C57.6022 17.424 58.0102 17.88 59.0662 17.88H62.1382V21H58.1302C54.9142 21 54.0262 19.392 54.0262 16.44V8.52H50.4022V5.4H52.0582C53.9062 5.256 54.4102 3.816 54.3622 1.176H57.9622C57.9622 3.264 57.6022 5.088 56.4022 5.4H62.1382ZM64.254 5.4H67.878V21H64.254V5.4ZM63.894 2.616C63.894 1.608 64.59 0.935999 66.078 0.935999C67.566 0.935999 68.262 1.608 68.262 2.616C68.262 3.552 67.566 4.248 66.078 4.248C64.59 4.248 63.894 3.552 63.894 2.616ZM74.1765 5.4V7.776C75.1125 6.264 76.6725 5.16 78.9045 5.16C82.1685 5.16 83.9685 7.536 83.9685 11.16V21H80.3685V11.568C80.3685 9.408 79.4565 8.232 77.4165 8.232C74.7045 8.232 74.1765 10.296 74.1765 11.688V21H70.5765V5.4H74.1765ZM92.8605 21V1.176H101.668C106.301 1.176 108.556 3.168 108.556 7.704V7.944C108.556 12.432 106.421 14.496 101.668 14.496H96.6045V21H92.8605ZM96.6045 11.304H101.741C103.9 11.304 104.717 10.44 104.717 8.52V7.08C104.717 5.184 103.9 4.344 101.741 4.344H96.6045V11.304ZM109.664 14.088V12.264C109.664 7.896 112.016 5.16 116.936 5.16C121.4 5.16 123.896 7.704 123.896 12.36V14.088H113.408V14.448C113.408 16.656 114.368 18.144 116.96 18.144C118.928 18.144 119.672 17.256 119.84 16.224L119.888 15.672H123.8L123.776 15.912C123.488 19.104 121.232 21.24 116.936 21.24C112.016 21.24 109.664 18.504 109.664 14.088ZM113.432 11.472H120.152L120.128 10.824C119.84 9.168 118.736 8.256 116.816 8.256C114.56 8.256 113.576 9.552 113.432 11.472ZM135.558 21V18.624C134.334 20.52 132.294 21.24 130.062 21.24C127.158 21.24 125.406 19.896 125.406 17.136C125.406 14.112 128.022 12.984 130.35 12.36L132.054 11.928C134.142 11.4 135.462 11.04 135.462 9.84V9.72C135.462 8.904 134.766 8.184 132.75 8.184C130.446 8.184 129.534 9.048 129.534 10.512V11.256H125.91V10.8C125.91 7.128 128.238 5.16 132.702 5.16C137.478 5.16 139.062 7.224 139.062 10.416V21H135.558ZM129.03 16.704C129.03 17.76 129.726 18.216 131.19 18.216C133.446 18.216 135.15 16.944 135.462 14.784V12.96C135.102 13.824 133.998 14.064 132.654 14.496L131.118 14.904C129.726 15.312 129.03 15.768 129.03 16.704ZM151.546 10.92C151.45 9.6 150.562 8.256 148.282 8.256C145.738 8.256 144.778 9.768 144.778 12V14.448C144.778 16.656 145.738 18.144 148.306 18.144C150.73 18.144 151.474 16.8 151.57 15.48L151.618 14.448H155.29L155.266 15.168C155.026 18.528 152.866 21.24 148.234 21.24C143.434 21.24 141.082 18.504 141.082 14.088V12.264C141.082 7.896 143.434 5.16 148.234 5.16C152.842 5.16 155.05 7.872 155.266 11.232L155.29 12H151.618L151.546 10.92ZM156.78 14.088V12.264C156.78 7.896 159.132 5.16 164.052 5.16C168.516 5.16 171.012 7.704 171.012 12.36V14.088H160.524V14.448C160.524 16.656 161.484 18.144 164.076 18.144C166.044 18.144 166.788 17.256 166.956 16.224L167.004 15.672H170.916L170.892 15.912C170.604 19.104 168.348 21.24 164.052 21.24C159.132 21.24 156.78 18.504 156.78 14.088ZM160.548 11.472H167.268L167.244 10.824C166.956 9.168 165.852 8.256 163.932 8.256C161.676 8.256 160.692 9.552 160.548 11.472Z" fill="url(#paint0_linear_760_1710)" fill-opacity="0.2"/>
<defs>
<linearGradient id="paint0_linear_760_1710" x1="-1.5" y1="14" x2="172.5" y2="14" gradientUnits="userSpaceOnUse">
<stop stop-color="#FFB800" stop-opacity="0"/>
<stop offset="1" stop-color="#1400FF"/>
</linearGradient>
</defs>
</svg>
