<svg width="738" height="268" viewBox="0 0 738 268" fill="none" xmlns="http://www.w3.org/2000/svg">
<g opacity="0.2">
<mask id="path-1-outside-1_810_922" maskUnits="userSpaceOnUse" x="0.0488281" y="-0.0078125" width="738" height="268" fill="black">
<rect fill="white" x="0.0488281" y="-0.0078125" width="738" height="268"/>
<path d="M33.5368 109V20.8082H2.04883V3.27219H85.1208V20.8082H53.6328V109H33.5368ZM112.857 3.27219V38.3442C117.849 30.2802 126.041 24.5202 137.945 24.5202C155.353 24.5202 164.953 37.1922 164.953 56.5202V109H145.753V58.6962C145.753 47.1762 140.889 40.9042 130.009 40.9042C117.209 40.9042 113.497 49.4802 112.857 56.6482V109H93.5288V3.27219H112.857ZM226.627 109V96.3282C220.099 106.44 209.219 110.28 197.315 110.28C181.827 110.28 172.483 103.112 172.483 88.3922C172.483 72.2642 186.435 66.2482 198.851 62.9202L207.939 60.6162C219.075 57.8002 226.115 55.8802 226.115 49.4802V48.8402C226.115 44.4882 222.403 40.6482 211.651 40.6482C199.363 40.6482 194.499 45.2562 194.499 53.0642V57.0322H175.171V54.6002C175.171 35.0162 187.587 24.5202 211.395 24.5202C236.867 24.5202 245.315 35.5282 245.315 52.5522V109H226.627ZM191.811 86.0882C191.811 91.7202 195.523 94.1522 203.331 94.1522C215.363 94.1522 224.451 87.3682 226.115 75.8482V66.1202C224.195 70.7282 218.307 72.0082 211.139 74.3122L202.947 76.4882C195.523 78.6642 191.811 81.0962 191.811 86.0882ZM275.674 25.8002V38.4722C280.666 30.4082 288.986 24.5202 300.89 24.5202C318.298 24.5202 327.898 37.1922 327.898 56.5202V109H308.698V58.6962C308.698 47.1762 303.834 40.9042 292.954 40.9042C278.49 40.9042 275.674 51.9122 275.674 59.3362V109H256.474V25.8002H275.674ZM338.884 3.27219H358.212V58.6962H365.124L391.364 25.8002H414.916L380.1 67.4002L414.916 109H391.364L364.484 75.3362H358.212V109H338.884V3.27219ZM465.717 61.5122C481.973 65.4802 486.197 73.4162 486.197 84.2962C486.197 99.0162 478.517 110.28 449.845 110.28C422.069 110.28 412.085 100.296 412.085 81.6082V78.5362H431.925V81.4802C431.925 91.0802 437.685 94.1522 449.973 94.1522C462.773 94.1522 466.357 90.9522 466.357 85.3202C466.357 80.3282 462.901 77.8962 454.581 75.3362L437.173 71.1122C419.253 67.5282 414.133 59.3362 414.133 48.8402C414.133 35.7842 422.069 24.5202 448.437 24.5202C475.573 24.5202 484.277 35.6562 484.277 51.0162V53.5762H464.437V51.1442C464.437 43.2082 459.061 40.6482 448.309 40.6482C440.373 40.6482 433.973 42.5682 433.973 47.9442C433.973 51.9122 437.045 54.0882 444.597 56.0082L465.717 61.5122ZM515.592 25.8002H535.688V22.6002C535.688 10.3122 539.144 1.99219 556.936 1.99219C563.848 1.99219 574.6 2.63219 580.232 3.27219V17.4802C578.824 17.4802 577.544 17.3522 566.92 17.3522C557.576 17.3522 555.016 18.7602 555.016 24.0082V30.0242C558.216 25.8002 564.104 25.8002 580.232 25.8002V42.5682H555.016V109H535.688V42.5682H515.592V25.8002ZM621.799 110.28C596.711 110.28 584.295 95.6882 584.295 72.1362V62.6642C584.295 39.1122 596.711 24.5202 621.799 24.5202C647.015 24.5202 659.303 39.1122 659.303 62.6642V72.1362C659.303 95.6882 647.015 110.28 621.799 110.28ZM604.007 73.8002C604.007 85.8322 608.487 93.7682 621.799 93.7682C635.111 93.7682 639.591 85.8322 639.591 73.8002V61.0002C639.591 49.0962 635.111 41.0322 621.799 41.0322C608.487 41.0322 604.007 49.0962 604.007 61.0002V73.8002ZM687.477 25.8002V38.2162C691.061 30.1522 699.893 24.5202 710.773 24.5202C724.597 24.5202 735.349 32.3282 735.349 53.0642V63.5602H715.637V55.2402C715.637 45.3842 712.181 40.9042 703.605 40.9042C691.445 40.9042 687.477 49.3522 687.477 57.0322V109H668.149V25.8002H687.477ZM7.80883 131.272H27.1368V237H7.80883V131.272ZM73.5288 238.28C48.4408 238.28 36.0248 223.688 36.0248 200.136V190.664C36.0248 167.112 48.4408 152.52 73.5288 152.52C98.7448 152.52 111.033 167.112 111.033 190.664V200.136C111.033 223.688 98.7448 238.28 73.5288 238.28ZM55.7368 201.8C55.7368 213.832 60.2168 221.768 73.5288 221.768C86.8408 221.768 91.3208 213.832 91.3208 201.8V189C91.3208 177.096 86.8408 169.032 73.5288 169.032C60.2168 169.032 55.7368 177.096 55.7368 189V201.8ZM155.719 238.28C130.631 238.28 118.215 223.688 118.215 200.136V190.664C118.215 167.112 130.631 152.52 155.719 152.52C180.935 152.52 193.223 167.112 193.223 190.664V200.136C193.223 223.688 180.935 238.28 155.719 238.28ZM137.927 201.8C137.927 213.832 142.407 221.768 155.719 221.768C169.031 221.768 173.511 213.832 173.511 201.8V189C173.511 177.096 169.031 169.032 155.719 169.032C142.407 169.032 137.927 177.096 137.927 189V201.8ZM202.069 131.272H221.397V186.696H228.309L254.549 153.8H278.101L243.285 195.4L278.101 237H254.549L227.669 203.336H221.397V237H202.069V131.272ZM288.254 153.8H307.582V237H288.254V153.8ZM286.334 138.952C286.334 133.576 290.046 129.992 297.982 129.992C305.918 129.992 309.63 133.576 309.63 138.952C309.63 143.944 305.918 147.656 297.982 147.656C290.046 147.656 286.334 143.944 286.334 138.952ZM338.614 153.8V166.472C343.606 158.408 351.926 152.52 363.83 152.52C381.238 152.52 390.838 165.192 390.838 184.52V237H371.638V186.696C371.638 175.176 366.774 168.904 355.894 168.904C341.43 168.904 338.614 179.912 338.614 187.336V237H319.414V153.8H338.614ZM455.584 235.464V226.76C451.744 232.52 444.448 238.28 431.776 238.28C411.296 238.28 399.008 223.944 399.008 203.08V186.952C399.008 167.368 411.168 152.52 431.52 152.52C443.808 152.52 451.232 157.896 455.584 163.4V153.8H474.784V236.872C474.784 255.944 468.896 265.928 447.392 265.928H403.488V249.288H443.936C453.28 249.288 455.584 245.448 455.584 235.464ZM418.848 202.184C418.848 212.552 424.096 221.768 437.152 221.768C449.952 221.768 455.584 212.68 455.584 202.184V188.488C455.584 177.992 450.08 169.032 437.152 169.032C424.096 169.032 418.848 178.12 418.848 188.616V202.184Z"/>
</mask>
<path d="M33.5368 109V20.8082H2.04883V3.27219H85.1208V20.8082H53.6328V109H33.5368ZM112.857 3.27219V38.3442C117.849 30.2802 126.041 24.5202 137.945 24.5202C155.353 24.5202 164.953 37.1922 164.953 56.5202V109H145.753V58.6962C145.753 47.1762 140.889 40.9042 130.009 40.9042C117.209 40.9042 113.497 49.4802 112.857 56.6482V109H93.5288V3.27219H112.857ZM226.627 109V96.3282C220.099 106.44 209.219 110.28 197.315 110.28C181.827 110.28 172.483 103.112 172.483 88.3922C172.483 72.2642 186.435 66.2482 198.851 62.9202L207.939 60.6162C219.075 57.8002 226.115 55.8802 226.115 49.4802V48.8402C226.115 44.4882 222.403 40.6482 211.651 40.6482C199.363 40.6482 194.499 45.2562 194.499 53.0642V57.0322H175.171V54.6002C175.171 35.0162 187.587 24.5202 211.395 24.5202C236.867 24.5202 245.315 35.5282 245.315 52.5522V109H226.627ZM191.811 86.0882C191.811 91.7202 195.523 94.1522 203.331 94.1522C215.363 94.1522 224.451 87.3682 226.115 75.8482V66.1202C224.195 70.7282 218.307 72.0082 211.139 74.3122L202.947 76.4882C195.523 78.6642 191.811 81.0962 191.811 86.0882ZM275.674 25.8002V38.4722C280.666 30.4082 288.986 24.5202 300.89 24.5202C318.298 24.5202 327.898 37.1922 327.898 56.5202V109H308.698V58.6962C308.698 47.1762 303.834 40.9042 292.954 40.9042C278.49 40.9042 275.674 51.9122 275.674 59.3362V109H256.474V25.8002H275.674ZM338.884 3.27219H358.212V58.6962H365.124L391.364 25.8002H414.916L380.1 67.4002L414.916 109H391.364L364.484 75.3362H358.212V109H338.884V3.27219ZM465.717 61.5122C481.973 65.4802 486.197 73.4162 486.197 84.2962C486.197 99.0162 478.517 110.28 449.845 110.28C422.069 110.28 412.085 100.296 412.085 81.6082V78.5362H431.925V81.4802C431.925 91.0802 437.685 94.1522 449.973 94.1522C462.773 94.1522 466.357 90.9522 466.357 85.3202C466.357 80.3282 462.901 77.8962 454.581 75.3362L437.173 71.1122C419.253 67.5282 414.133 59.3362 414.133 48.8402C414.133 35.7842 422.069 24.5202 448.437 24.5202C475.573 24.5202 484.277 35.6562 484.277 51.0162V53.5762H464.437V51.1442C464.437 43.2082 459.061 40.6482 448.309 40.6482C440.373 40.6482 433.973 42.5682 433.973 47.9442C433.973 51.9122 437.045 54.0882 444.597 56.0082L465.717 61.5122ZM515.592 25.8002H535.688V22.6002C535.688 10.3122 539.144 1.99219 556.936 1.99219C563.848 1.99219 574.6 2.63219 580.232 3.27219V17.4802C578.824 17.4802 577.544 17.3522 566.92 17.3522C557.576 17.3522 555.016 18.7602 555.016 24.0082V30.0242C558.216 25.8002 564.104 25.8002 580.232 25.8002V42.5682H555.016V109H535.688V42.5682H515.592V25.8002ZM621.799 110.28C596.711 110.28 584.295 95.6882 584.295 72.1362V62.6642C584.295 39.1122 596.711 24.5202 621.799 24.5202C647.015 24.5202 659.303 39.1122 659.303 62.6642V72.1362C659.303 95.6882 647.015 110.28 621.799 110.28ZM604.007 73.8002C604.007 85.8322 608.487 93.7682 621.799 93.7682C635.111 93.7682 639.591 85.8322 639.591 73.8002V61.0002C639.591 49.0962 635.111 41.0322 621.799 41.0322C608.487 41.0322 604.007 49.0962 604.007 61.0002V73.8002ZM687.477 25.8002V38.2162C691.061 30.1522 699.893 24.5202 710.773 24.5202C724.597 24.5202 735.349 32.3282 735.349 53.0642V63.5602H715.637V55.2402C715.637 45.3842 712.181 40.9042 703.605 40.9042C691.445 40.9042 687.477 49.3522 687.477 57.0322V109H668.149V25.8002H687.477ZM7.80883 131.272H27.1368V237H7.80883V131.272ZM73.5288 238.28C48.4408 238.28 36.0248 223.688 36.0248 200.136V190.664C36.0248 167.112 48.4408 152.52 73.5288 152.52C98.7448 152.52 111.033 167.112 111.033 190.664V200.136C111.033 223.688 98.7448 238.28 73.5288 238.28ZM55.7368 201.8C55.7368 213.832 60.2168 221.768 73.5288 221.768C86.8408 221.768 91.3208 213.832 91.3208 201.8V189C91.3208 177.096 86.8408 169.032 73.5288 169.032C60.2168 169.032 55.7368 177.096 55.7368 189V201.8ZM155.719 238.28C130.631 238.28 118.215 223.688 118.215 200.136V190.664C118.215 167.112 130.631 152.52 155.719 152.52C180.935 152.52 193.223 167.112 193.223 190.664V200.136C193.223 223.688 180.935 238.28 155.719 238.28ZM137.927 201.8C137.927 213.832 142.407 221.768 155.719 221.768C169.031 221.768 173.511 213.832 173.511 201.8V189C173.511 177.096 169.031 169.032 155.719 169.032C142.407 169.032 137.927 177.096 137.927 189V201.8ZM202.069 131.272H221.397V186.696H228.309L254.549 153.8H278.101L243.285 195.4L278.101 237H254.549L227.669 203.336H221.397V237H202.069V131.272ZM288.254 153.8H307.582V237H288.254V153.8ZM286.334 138.952C286.334 133.576 290.046 129.992 297.982 129.992C305.918 129.992 309.63 133.576 309.63 138.952C309.63 143.944 305.918 147.656 297.982 147.656C290.046 147.656 286.334 143.944 286.334 138.952ZM338.614 153.8V166.472C343.606 158.408 351.926 152.52 363.83 152.52C381.238 152.52 390.838 165.192 390.838 184.52V237H371.638V186.696C371.638 175.176 366.774 168.904 355.894 168.904C341.43 168.904 338.614 179.912 338.614 187.336V237H319.414V153.8H338.614ZM455.584 235.464V226.76C451.744 232.52 444.448 238.28 431.776 238.28C411.296 238.28 399.008 223.944 399.008 203.08V186.952C399.008 167.368 411.168 152.52 431.52 152.52C443.808 152.52 451.232 157.896 455.584 163.4V153.8H474.784V236.872C474.784 255.944 468.896 265.928 447.392 265.928H403.488V249.288H443.936C453.28 249.288 455.584 245.448 455.584 235.464ZM418.848 202.184C418.848 212.552 424.096 221.768 437.152 221.768C449.952 221.768 455.584 212.68 455.584 202.184V188.488C455.584 177.992 450.08 169.032 437.152 169.032C424.096 169.032 418.848 178.12 418.848 188.616V202.184Z" stroke="black" stroke-width="4" mask="url(#path-1-outside-1_810_922)"/>
</g>
</svg>
