<svg width="473" height="27" viewBox="0 0 473 27" fill="none" xmlns="http://www.w3.org/2000/svg">
<mask id="path-1-outside-1_760_1709" maskUnits="userSpaceOnUse" x="0.0947266" y="-0.40625" width="173" height="22" fill="black">
<rect fill="white" x="0.0947266" y="-0.40625" width="173" height="22"/>
<path d="M1.09473 20.6578V0.83375H5.34273L10.4307 13.8418L15.5187 0.83375H19.7667V20.6578H16.2147V8.08175L11.2467 20.6578H9.61473L4.64673 8.08175V20.6578H1.09473Z"/>
<path d="M32.0322 20.6578V18.2817C30.8082 20.1777 28.7682 20.8978 26.5362 20.8978C23.6322 20.8978 21.8802 19.5538 21.8802 16.7938C21.8802 13.7698 24.4962 12.6417 26.8242 12.0177L28.5282 11.5858C30.6162 11.0578 31.9362 10.6977 31.9362 9.49775V9.37775C31.9362 8.56175 31.2402 7.84175 29.2242 7.84175C26.9202 7.84175 26.0082 8.70575 26.0082 10.1698V10.9137H22.3842V10.4578C22.3842 6.78575 24.7122 4.81775 29.1762 4.81775C33.9522 4.81775 35.5362 6.88175 35.5362 10.0738V20.6578H32.0322ZM25.5042 16.3618C25.5042 17.4178 26.2002 17.8738 27.6642 17.8738C29.9202 17.8738 31.6242 16.6018 31.9362 14.4418V12.6178C31.5762 13.4817 30.4722 13.7218 29.1282 14.1537L27.5922 14.5618C26.2002 14.9698 25.5042 15.4258 25.5042 16.3618Z"/>
<path d="M41.7325 5.05775V7.38575C42.4045 5.87375 44.0605 4.81775 46.1005 4.81775C48.6925 4.81775 50.7085 6.28175 50.7085 10.1698V12.1378H47.0125V10.5778C47.0125 8.72975 46.3645 7.88975 44.7565 7.88975C42.4765 7.88975 41.7325 9.47375 41.7325 10.9137V20.6578H38.1085V5.05775H41.7325Z"/>
<path d="M63.005 5.05775V8.17775H58.469V15.3778C58.469 17.0818 58.877 17.5378 59.933 17.5378H63.005V20.6578H58.997C55.781 20.6578 54.893 19.0498 54.893 16.0978V8.17775H51.269V5.05775H52.925C54.773 4.91375 55.277 3.47375 55.229 0.83375H58.829C58.829 2.92175 58.469 4.74575 57.269 5.05775H63.005Z"/>
<path d="M65.1207 5.05775H68.7447V20.6578H65.1207V5.05775ZM64.7607 2.27375C64.7607 1.26575 65.4567 0.59375 66.9447 0.59375C68.4327 0.59375 69.1287 1.26575 69.1287 2.27375C69.1287 3.20975 68.4327 3.90575 66.9447 3.90575C65.4567 3.90575 64.7607 3.20975 64.7607 2.27375Z"/>
<path d="M75.0432 5.05775V7.43375C75.9792 5.92175 77.5392 4.81775 79.7712 4.81775C83.0352 4.81775 84.8352 7.19375 84.8352 10.8177V20.6578H81.2352V11.2257C81.2352 9.06575 80.3232 7.88975 78.2832 7.88975C75.5712 7.88975 75.0432 9.95375 75.0432 11.3458V20.6578H71.4432V5.05775H75.0432Z"/>
<path d="M93.7272 20.6578V0.83375H102.535C107.167 0.83375 109.423 2.82575 109.423 7.36175V7.60175C109.423 12.0897 107.287 14.1537 102.535 14.1537H97.4712V20.6578H93.7272ZM97.4712 10.9618H102.607C104.767 10.9618 105.583 10.0977 105.583 8.17775V6.73775C105.583 4.84175 104.767 4.00175 102.607 4.00175H97.4712V10.9618Z"/>
<path d="M110.531 13.7458V11.9218C110.531 7.55375 112.883 4.81775 117.803 4.81775C122.267 4.81775 124.763 7.36175 124.763 12.0177V13.7458H114.275V14.1058C114.275 16.3138 115.235 17.8018 117.827 17.8018C119.795 17.8018 120.539 16.9138 120.707 15.8818L120.755 15.3298H124.667L124.643 15.5697C124.355 18.7617 122.099 20.8978 117.803 20.8978C112.883 20.8978 110.531 18.1618 110.531 13.7458ZM114.299 11.1298H121.019L120.995 10.4818C120.707 8.82575 119.603 7.91375 117.683 7.91375C115.427 7.91375 114.443 9.20975 114.299 11.1298Z"/>
<path d="M136.425 20.6578V18.2817C135.201 20.1777 133.161 20.8978 130.929 20.8978C128.025 20.8978 126.273 19.5538 126.273 16.7938C126.273 13.7698 128.889 12.6417 131.217 12.0177L132.921 11.5858C135.009 11.0578 136.329 10.6977 136.329 9.49775V9.37775C136.329 8.56175 135.633 7.84175 133.617 7.84175C131.313 7.84175 130.401 8.70575 130.401 10.1698V10.9137H126.777V10.4578C126.777 6.78575 129.105 4.81775 133.569 4.81775C138.345 4.81775 139.929 6.88175 139.929 10.0738V20.6578H136.425ZM129.897 16.3618C129.897 17.4178 130.593 17.8738 132.057 17.8738C134.313 17.8738 136.017 16.6018 136.329 14.4418V12.6178C135.969 13.4817 134.865 13.7218 133.521 14.1537L131.985 14.5618C130.593 14.9698 129.897 15.4258 129.897 16.3618Z"/>
<path d="M152.413 10.5778C152.317 9.25775 151.429 7.91375 149.149 7.91375C146.605 7.91375 145.645 9.42575 145.645 11.6578V14.1058C145.645 16.3138 146.605 17.8018 149.173 17.8018C151.597 17.8018 152.341 16.4578 152.437 15.1378L152.485 14.1058H156.157L156.133 14.8258C155.893 18.1858 153.733 20.8978 149.101 20.8978C144.301 20.8978 141.949 18.1618 141.949 13.7458V11.9218C141.949 7.55375 144.301 4.81775 149.101 4.81775C153.709 4.81775 155.917 7.52975 156.133 10.8898L156.157 11.6578H152.485L152.413 10.5778Z"/>
<path d="M157.647 13.7458V11.9218C157.647 7.55375 159.999 4.81775 164.919 4.81775C169.383 4.81775 171.879 7.36175 171.879 12.0177V13.7458H161.391V14.1058C161.391 16.3138 162.351 17.8018 164.943 17.8018C166.911 17.8018 167.655 16.9138 167.823 15.8818L167.871 15.3298H171.783L171.759 15.5697C171.471 18.7617 169.215 20.8978 164.919 20.8978C159.999 20.8978 157.647 18.1618 157.647 13.7458ZM161.415 11.1298H168.135L168.111 10.4818C167.823 8.82575 166.719 7.91375 164.799 7.91375C162.543 7.91375 161.559 9.20975 161.415 11.1298Z"/>
</mask>
<path d="M1.09473 20.6578V0.83375H5.34273L10.4307 13.8418L15.5187 0.83375H19.7667V20.6578H16.2147V8.08175L11.2467 20.6578H9.61473L4.64673 8.08175V20.6578H1.09473Z" fill="#111113"/>
<path d="M1.09473 20.6578V0.83375H5.34273L10.4307 13.8418L15.5187 0.83375H19.7667V20.6578H16.2147V8.08175L11.2467 20.6578H9.61473L4.64673 8.08175V20.6578H1.09473Z" fill="#FFC581"/>
<path d="M1.09473 20.6578V0.83375H5.34273L10.4307 13.8418L15.5187 0.83375H19.7667V20.6578H16.2147V8.08175L11.2467 20.6578H9.61473L4.64673 8.08175V20.6578H1.09473Z" fill="url(#paint0_linear_760_1709)" fill-opacity="0.2"/>
<path d="M32.0322 20.6578V18.2817C30.8082 20.1777 28.7682 20.8978 26.5362 20.8978C23.6322 20.8978 21.8802 19.5538 21.8802 16.7938C21.8802 13.7698 24.4962 12.6417 26.8242 12.0177L28.5282 11.5858C30.6162 11.0578 31.9362 10.6977 31.9362 9.49775V9.37775C31.9362 8.56175 31.2402 7.84175 29.2242 7.84175C26.9202 7.84175 26.0082 8.70575 26.0082 10.1698V10.9137H22.3842V10.4578C22.3842 6.78575 24.7122 4.81775 29.1762 4.81775C33.9522 4.81775 35.5362 6.88175 35.5362 10.0738V20.6578H32.0322ZM25.5042 16.3618C25.5042 17.4178 26.2002 17.8738 27.6642 17.8738C29.9202 17.8738 31.6242 16.6018 31.9362 14.4418V12.6178C31.5762 13.4817 30.4722 13.7218 29.1282 14.1537L27.5922 14.5618C26.2002 14.9698 25.5042 15.4258 25.5042 16.3618Z" fill="#111113"/>
<path d="M32.0322 20.6578V18.2817C30.8082 20.1777 28.7682 20.8978 26.5362 20.8978C23.6322 20.8978 21.8802 19.5538 21.8802 16.7938C21.8802 13.7698 24.4962 12.6417 26.8242 12.0177L28.5282 11.5858C30.6162 11.0578 31.9362 10.6977 31.9362 9.49775V9.37775C31.9362 8.56175 31.2402 7.84175 29.2242 7.84175C26.9202 7.84175 26.0082 8.70575 26.0082 10.1698V10.9137H22.3842V10.4578C22.3842 6.78575 24.7122 4.81775 29.1762 4.81775C33.9522 4.81775 35.5362 6.88175 35.5362 10.0738V20.6578H32.0322ZM25.5042 16.3618C25.5042 17.4178 26.2002 17.8738 27.6642 17.8738C29.9202 17.8738 31.6242 16.6018 31.9362 14.4418V12.6178C31.5762 13.4817 30.4722 13.7218 29.1282 14.1537L27.5922 14.5618C26.2002 14.9698 25.5042 15.4258 25.5042 16.3618Z" fill="#FFC581"/>
<path d="M32.0322 20.6578V18.2817C30.8082 20.1777 28.7682 20.8978 26.5362 20.8978C23.6322 20.8978 21.8802 19.5538 21.8802 16.7938C21.8802 13.7698 24.4962 12.6417 26.8242 12.0177L28.5282 11.5858C30.6162 11.0578 31.9362 10.6977 31.9362 9.49775V9.37775C31.9362 8.56175 31.2402 7.84175 29.2242 7.84175C26.9202 7.84175 26.0082 8.70575 26.0082 10.1698V10.9137H22.3842V10.4578C22.3842 6.78575 24.7122 4.81775 29.1762 4.81775C33.9522 4.81775 35.5362 6.88175 35.5362 10.0738V20.6578H32.0322ZM25.5042 16.3618C25.5042 17.4178 26.2002 17.8738 27.6642 17.8738C29.9202 17.8738 31.6242 16.6018 31.9362 14.4418V12.6178C31.5762 13.4817 30.4722 13.7218 29.1282 14.1537L27.5922 14.5618C26.2002 14.9698 25.5042 15.4258 25.5042 16.3618Z" fill="url(#paint1_linear_760_1709)" fill-opacity="0.2"/>
<path d="M41.7325 5.05775V7.38575C42.4045 5.87375 44.0605 4.81775 46.1005 4.81775C48.6925 4.81775 50.7085 6.28175 50.7085 10.1698V12.1378H47.0125V10.5778C47.0125 8.72975 46.3645 7.88975 44.7565 7.88975C42.4765 7.88975 41.7325 9.47375 41.7325 10.9137V20.6578H38.1085V5.05775H41.7325Z" fill="#111113"/>
<path d="M41.7325 5.05775V7.38575C42.4045 5.87375 44.0605 4.81775 46.1005 4.81775C48.6925 4.81775 50.7085 6.28175 50.7085 10.1698V12.1378H47.0125V10.5778C47.0125 8.72975 46.3645 7.88975 44.7565 7.88975C42.4765 7.88975 41.7325 9.47375 41.7325 10.9137V20.6578H38.1085V5.05775H41.7325Z" fill="#FFC581"/>
<path d="M41.7325 5.05775V7.38575C42.4045 5.87375 44.0605 4.81775 46.1005 4.81775C48.6925 4.81775 50.7085 6.28175 50.7085 10.1698V12.1378H47.0125V10.5778C47.0125 8.72975 46.3645 7.88975 44.7565 7.88975C42.4765 7.88975 41.7325 9.47375 41.7325 10.9137V20.6578H38.1085V5.05775H41.7325Z" fill="url(#paint2_linear_760_1709)" fill-opacity="0.2"/>
<path d="M63.005 5.05775V8.17775H58.469V15.3778C58.469 17.0818 58.877 17.5378 59.933 17.5378H63.005V20.6578H58.997C55.781 20.6578 54.893 19.0498 54.893 16.0978V8.17775H51.269V5.05775H52.925C54.773 4.91375 55.277 3.47375 55.229 0.83375H58.829C58.829 2.92175 58.469 4.74575 57.269 5.05775H63.005Z" fill="#111113"/>
<path d="M63.005 5.05775V8.17775H58.469V15.3778C58.469 17.0818 58.877 17.5378 59.933 17.5378H63.005V20.6578H58.997C55.781 20.6578 54.893 19.0498 54.893 16.0978V8.17775H51.269V5.05775H52.925C54.773 4.91375 55.277 3.47375 55.229 0.83375H58.829C58.829 2.92175 58.469 4.74575 57.269 5.05775H63.005Z" fill="#FFC581"/>
<path d="M63.005 5.05775V8.17775H58.469V15.3778C58.469 17.0818 58.877 17.5378 59.933 17.5378H63.005V20.6578H58.997C55.781 20.6578 54.893 19.0498 54.893 16.0978V8.17775H51.269V5.05775H52.925C54.773 4.91375 55.277 3.47375 55.229 0.83375H58.829C58.829 2.92175 58.469 4.74575 57.269 5.05775H63.005Z" fill="url(#paint3_linear_760_1709)" fill-opacity="0.2"/>
<path d="M65.1207 5.05775H68.7447V20.6578H65.1207V5.05775ZM64.7607 2.27375C64.7607 1.26575 65.4567 0.59375 66.9447 0.59375C68.4327 0.59375 69.1287 1.26575 69.1287 2.27375C69.1287 3.20975 68.4327 3.90575 66.9447 3.90575C65.4567 3.90575 64.7607 3.20975 64.7607 2.27375Z" fill="#111113"/>
<path d="M65.1207 5.05775H68.7447V20.6578H65.1207V5.05775ZM64.7607 2.27375C64.7607 1.26575 65.4567 0.59375 66.9447 0.59375C68.4327 0.59375 69.1287 1.26575 69.1287 2.27375C69.1287 3.20975 68.4327 3.90575 66.9447 3.90575C65.4567 3.90575 64.7607 3.20975 64.7607 2.27375Z" fill="#FFC581"/>
<path d="M65.1207 5.05775H68.7447V20.6578H65.1207V5.05775ZM64.7607 2.27375C64.7607 1.26575 65.4567 0.59375 66.9447 0.59375C68.4327 0.59375 69.1287 1.26575 69.1287 2.27375C69.1287 3.20975 68.4327 3.90575 66.9447 3.90575C65.4567 3.90575 64.7607 3.20975 64.7607 2.27375Z" fill="url(#paint4_linear_760_1709)" fill-opacity="0.2"/>
<path d="M75.0432 5.05775V7.43375C75.9792 5.92175 77.5392 4.81775 79.7712 4.81775C83.0352 4.81775 84.8352 7.19375 84.8352 10.8177V20.6578H81.2352V11.2257C81.2352 9.06575 80.3232 7.88975 78.2832 7.88975C75.5712 7.88975 75.0432 9.95375 75.0432 11.3458V20.6578H71.4432V5.05775H75.0432Z" fill="#111113"/>
<path d="M75.0432 5.05775V7.43375C75.9792 5.92175 77.5392 4.81775 79.7712 4.81775C83.0352 4.81775 84.8352 7.19375 84.8352 10.8177V20.6578H81.2352V11.2257C81.2352 9.06575 80.3232 7.88975 78.2832 7.88975C75.5712 7.88975 75.0432 9.95375 75.0432 11.3458V20.6578H71.4432V5.05775H75.0432Z" fill="#FFC581"/>
<path d="M75.0432 5.05775V7.43375C75.9792 5.92175 77.5392 4.81775 79.7712 4.81775C83.0352 4.81775 84.8352 7.19375 84.8352 10.8177V20.6578H81.2352V11.2257C81.2352 9.06575 80.3232 7.88975 78.2832 7.88975C75.5712 7.88975 75.0432 9.95375 75.0432 11.3458V20.6578H71.4432V5.05775H75.0432Z" fill="url(#paint5_linear_760_1709)" fill-opacity="0.2"/>
<path d="M93.7272 20.6578V0.83375H102.535C107.167 0.83375 109.423 2.82575 109.423 7.36175V7.60175C109.423 12.0897 107.287 14.1537 102.535 14.1537H97.4712V20.6578H93.7272ZM97.4712 10.9618H102.607C104.767 10.9618 105.583 10.0977 105.583 8.17775V6.73775C105.583 4.84175 104.767 4.00175 102.607 4.00175H97.4712V10.9618Z" fill="#111113"/>
<path d="M93.7272 20.6578V0.83375H102.535C107.167 0.83375 109.423 2.82575 109.423 7.36175V7.60175C109.423 12.0897 107.287 14.1537 102.535 14.1537H97.4712V20.6578H93.7272ZM97.4712 10.9618H102.607C104.767 10.9618 105.583 10.0977 105.583 8.17775V6.73775C105.583 4.84175 104.767 4.00175 102.607 4.00175H97.4712V10.9618Z" fill="#FFC581"/>
<path d="M93.7272 20.6578V0.83375H102.535C107.167 0.83375 109.423 2.82575 109.423 7.36175V7.60175C109.423 12.0897 107.287 14.1537 102.535 14.1537H97.4712V20.6578H93.7272ZM97.4712 10.9618H102.607C104.767 10.9618 105.583 10.0977 105.583 8.17775V6.73775C105.583 4.84175 104.767 4.00175 102.607 4.00175H97.4712V10.9618Z" fill="url(#paint6_linear_760_1709)" fill-opacity="0.2"/>
<path d="M110.531 13.7458V11.9218C110.531 7.55375 112.883 4.81775 117.803 4.81775C122.267 4.81775 124.763 7.36175 124.763 12.0177V13.7458H114.275V14.1058C114.275 16.3138 115.235 17.8018 117.827 17.8018C119.795 17.8018 120.539 16.9138 120.707 15.8818L120.755 15.3298H124.667L124.643 15.5697C124.355 18.7617 122.099 20.8978 117.803 20.8978C112.883 20.8978 110.531 18.1618 110.531 13.7458ZM114.299 11.1298H121.019L120.995 10.4818C120.707 8.82575 119.603 7.91375 117.683 7.91375C115.427 7.91375 114.443 9.20975 114.299 11.1298Z" fill="#111113"/>
<path d="M110.531 13.7458V11.9218C110.531 7.55375 112.883 4.81775 117.803 4.81775C122.267 4.81775 124.763 7.36175 124.763 12.0177V13.7458H114.275V14.1058C114.275 16.3138 115.235 17.8018 117.827 17.8018C119.795 17.8018 120.539 16.9138 120.707 15.8818L120.755 15.3298H124.667L124.643 15.5697C124.355 18.7617 122.099 20.8978 117.803 20.8978C112.883 20.8978 110.531 18.1618 110.531 13.7458ZM114.299 11.1298H121.019L120.995 10.4818C120.707 8.82575 119.603 7.91375 117.683 7.91375C115.427 7.91375 114.443 9.20975 114.299 11.1298Z" fill="#FFC581"/>
<path d="M110.531 13.7458V11.9218C110.531 7.55375 112.883 4.81775 117.803 4.81775C122.267 4.81775 124.763 7.36175 124.763 12.0177V13.7458H114.275V14.1058C114.275 16.3138 115.235 17.8018 117.827 17.8018C119.795 17.8018 120.539 16.9138 120.707 15.8818L120.755 15.3298H124.667L124.643 15.5697C124.355 18.7617 122.099 20.8978 117.803 20.8978C112.883 20.8978 110.531 18.1618 110.531 13.7458ZM114.299 11.1298H121.019L120.995 10.4818C120.707 8.82575 119.603 7.91375 117.683 7.91375C115.427 7.91375 114.443 9.20975 114.299 11.1298Z" fill="url(#paint7_linear_760_1709)" fill-opacity="0.2"/>
<path d="M136.425 20.6578V18.2817C135.201 20.1777 133.161 20.8978 130.929 20.8978C128.025 20.8978 126.273 19.5538 126.273 16.7938C126.273 13.7698 128.889 12.6417 131.217 12.0177L132.921 11.5858C135.009 11.0578 136.329 10.6977 136.329 9.49775V9.37775C136.329 8.56175 135.633 7.84175 133.617 7.84175C131.313 7.84175 130.401 8.70575 130.401 10.1698V10.9137H126.777V10.4578C126.777 6.78575 129.105 4.81775 133.569 4.81775C138.345 4.81775 139.929 6.88175 139.929 10.0738V20.6578H136.425ZM129.897 16.3618C129.897 17.4178 130.593 17.8738 132.057 17.8738C134.313 17.8738 136.017 16.6018 136.329 14.4418V12.6178C135.969 13.4817 134.865 13.7218 133.521 14.1537L131.985 14.5618C130.593 14.9698 129.897 15.4258 129.897 16.3618Z" fill="#111113"/>
<path d="M136.425 20.6578V18.2817C135.201 20.1777 133.161 20.8978 130.929 20.8978C128.025 20.8978 126.273 19.5538 126.273 16.7938C126.273 13.7698 128.889 12.6417 131.217 12.0177L132.921 11.5858C135.009 11.0578 136.329 10.6977 136.329 9.49775V9.37775C136.329 8.56175 135.633 7.84175 133.617 7.84175C131.313 7.84175 130.401 8.70575 130.401 10.1698V10.9137H126.777V10.4578C126.777 6.78575 129.105 4.81775 133.569 4.81775C138.345 4.81775 139.929 6.88175 139.929 10.0738V20.6578H136.425ZM129.897 16.3618C129.897 17.4178 130.593 17.8738 132.057 17.8738C134.313 17.8738 136.017 16.6018 136.329 14.4418V12.6178C135.969 13.4817 134.865 13.7218 133.521 14.1537L131.985 14.5618C130.593 14.9698 129.897 15.4258 129.897 16.3618Z" fill="#FFC581"/>
<path d="M136.425 20.6578V18.2817C135.201 20.1777 133.161 20.8978 130.929 20.8978C128.025 20.8978 126.273 19.5538 126.273 16.7938C126.273 13.7698 128.889 12.6417 131.217 12.0177L132.921 11.5858C135.009 11.0578 136.329 10.6977 136.329 9.49775V9.37775C136.329 8.56175 135.633 7.84175 133.617 7.84175C131.313 7.84175 130.401 8.70575 130.401 10.1698V10.9137H126.777V10.4578C126.777 6.78575 129.105 4.81775 133.569 4.81775C138.345 4.81775 139.929 6.88175 139.929 10.0738V20.6578H136.425ZM129.897 16.3618C129.897 17.4178 130.593 17.8738 132.057 17.8738C134.313 17.8738 136.017 16.6018 136.329 14.4418V12.6178C135.969 13.4817 134.865 13.7218 133.521 14.1537L131.985 14.5618C130.593 14.9698 129.897 15.4258 129.897 16.3618Z" fill="url(#paint8_linear_760_1709)" fill-opacity="0.2"/>
<path d="M152.413 10.5778C152.317 9.25775 151.429 7.91375 149.149 7.91375C146.605 7.91375 145.645 9.42575 145.645 11.6578V14.1058C145.645 16.3138 146.605 17.8018 149.173 17.8018C151.597 17.8018 152.341 16.4578 152.437 15.1378L152.485 14.1058H156.157L156.133 14.8258C155.893 18.1858 153.733 20.8978 149.101 20.8978C144.301 20.8978 141.949 18.1618 141.949 13.7458V11.9218C141.949 7.55375 144.301 4.81775 149.101 4.81775C153.709 4.81775 155.917 7.52975 156.133 10.8898L156.157 11.6578H152.485L152.413 10.5778Z" fill="#111113"/>
<path d="M152.413 10.5778C152.317 9.25775 151.429 7.91375 149.149 7.91375C146.605 7.91375 145.645 9.42575 145.645 11.6578V14.1058C145.645 16.3138 146.605 17.8018 149.173 17.8018C151.597 17.8018 152.341 16.4578 152.437 15.1378L152.485 14.1058H156.157L156.133 14.8258C155.893 18.1858 153.733 20.8978 149.101 20.8978C144.301 20.8978 141.949 18.1618 141.949 13.7458V11.9218C141.949 7.55375 144.301 4.81775 149.101 4.81775C153.709 4.81775 155.917 7.52975 156.133 10.8898L156.157 11.6578H152.485L152.413 10.5778Z" fill="#FFC581"/>
<path d="M152.413 10.5778C152.317 9.25775 151.429 7.91375 149.149 7.91375C146.605 7.91375 145.645 9.42575 145.645 11.6578V14.1058C145.645 16.3138 146.605 17.8018 149.173 17.8018C151.597 17.8018 152.341 16.4578 152.437 15.1378L152.485 14.1058H156.157L156.133 14.8258C155.893 18.1858 153.733 20.8978 149.101 20.8978C144.301 20.8978 141.949 18.1618 141.949 13.7458V11.9218C141.949 7.55375 144.301 4.81775 149.101 4.81775C153.709 4.81775 155.917 7.52975 156.133 10.8898L156.157 11.6578H152.485L152.413 10.5778Z" fill="url(#paint9_linear_760_1709)" fill-opacity="0.2"/>
<path d="M157.647 13.7458V11.9218C157.647 7.55375 159.999 4.81775 164.919 4.81775C169.383 4.81775 171.879 7.36175 171.879 12.0177V13.7458H161.391V14.1058C161.391 16.3138 162.351 17.8018 164.943 17.8018C166.911 17.8018 167.655 16.9138 167.823 15.8818L167.871 15.3298H171.783L171.759 15.5697C171.471 18.7617 169.215 20.8978 164.919 20.8978C159.999 20.8978 157.647 18.1618 157.647 13.7458ZM161.415 11.1298H168.135L168.111 10.4818C167.823 8.82575 166.719 7.91375 164.799 7.91375C162.543 7.91375 161.559 9.20975 161.415 11.1298Z" fill="#111113"/>
<path d="M157.647 13.7458V11.9218C157.647 7.55375 159.999 4.81775 164.919 4.81775C169.383 4.81775 171.879 7.36175 171.879 12.0177V13.7458H161.391V14.1058C161.391 16.3138 162.351 17.8018 164.943 17.8018C166.911 17.8018 167.655 16.9138 167.823 15.8818L167.871 15.3298H171.783L171.759 15.5697C171.471 18.7617 169.215 20.8978 164.919 20.8978C159.999 20.8978 157.647 18.1618 157.647 13.7458ZM161.415 11.1298H168.135L168.111 10.4818C167.823 8.82575 166.719 7.91375 164.799 7.91375C162.543 7.91375 161.559 9.20975 161.415 11.1298Z" fill="#FFC581"/>
<path d="M157.647 13.7458V11.9218C157.647 7.55375 159.999 4.81775 164.919 4.81775C169.383 4.81775 171.879 7.36175 171.879 12.0177V13.7458H161.391V14.1058C161.391 16.3138 162.351 17.8018 164.943 17.8018C166.911 17.8018 167.655 16.9138 167.823 15.8818L167.871 15.3298H171.783L171.759 15.5697C171.471 18.7617 169.215 20.8978 164.919 20.8978C159.999 20.8978 157.647 18.1618 157.647 13.7458ZM161.415 11.1298H168.135L168.111 10.4818C167.823 8.82575 166.719 7.91375 164.799 7.91375C162.543 7.91375 161.559 9.20975 161.415 11.1298Z" fill="url(#paint10_linear_760_1709)" fill-opacity="0.2"/>
<path d="M1.09473 20.6578V0.83375H5.34273L10.4307 13.8418L15.5187 0.83375H19.7667V20.6578H16.2147V8.08175L11.2467 20.6578H9.61473L4.64673 8.08175V20.6578H1.09473Z" stroke="#C49287" stroke-width="0.5" mask="url(#path-1-outside-1_760_1709)"/>
<path d="M32.0322 20.6578V18.2817C30.8082 20.1777 28.7682 20.8978 26.5362 20.8978C23.6322 20.8978 21.8802 19.5538 21.8802 16.7938C21.8802 13.7698 24.4962 12.6417 26.8242 12.0177L28.5282 11.5858C30.6162 11.0578 31.9362 10.6977 31.9362 9.49775V9.37775C31.9362 8.56175 31.2402 7.84175 29.2242 7.84175C26.9202 7.84175 26.0082 8.70575 26.0082 10.1698V10.9137H22.3842V10.4578C22.3842 6.78575 24.7122 4.81775 29.1762 4.81775C33.9522 4.81775 35.5362 6.88175 35.5362 10.0738V20.6578H32.0322ZM25.5042 16.3618C25.5042 17.4178 26.2002 17.8738 27.6642 17.8738C29.9202 17.8738 31.6242 16.6018 31.9362 14.4418V12.6178C31.5762 13.4817 30.4722 13.7218 29.1282 14.1537L27.5922 14.5618C26.2002 14.9698 25.5042 15.4258 25.5042 16.3618Z" stroke="#C49287" stroke-width="0.5" mask="url(#path-1-outside-1_760_1709)"/>
<path d="M41.7325 5.05775V7.38575C42.4045 5.87375 44.0605 4.81775 46.1005 4.81775C48.6925 4.81775 50.7085 6.28175 50.7085 10.1698V12.1378H47.0125V10.5778C47.0125 8.72975 46.3645 7.88975 44.7565 7.88975C42.4765 7.88975 41.7325 9.47375 41.7325 10.9137V20.6578H38.1085V5.05775H41.7325Z" stroke="#C49287" stroke-width="0.5" mask="url(#path-1-outside-1_760_1709)"/>
<path d="M63.005 5.05775V8.17775H58.469V15.3778C58.469 17.0818 58.877 17.5378 59.933 17.5378H63.005V20.6578H58.997C55.781 20.6578 54.893 19.0498 54.893 16.0978V8.17775H51.269V5.05775H52.925C54.773 4.91375 55.277 3.47375 55.229 0.83375H58.829C58.829 2.92175 58.469 4.74575 57.269 5.05775H63.005Z" stroke="#C49287" stroke-width="0.5" mask="url(#path-1-outside-1_760_1709)"/>
<path d="M65.1207 5.05775H68.7447V20.6578H65.1207V5.05775ZM64.7607 2.27375C64.7607 1.26575 65.4567 0.59375 66.9447 0.59375C68.4327 0.59375 69.1287 1.26575 69.1287 2.27375C69.1287 3.20975 68.4327 3.90575 66.9447 3.90575C65.4567 3.90575 64.7607 3.20975 64.7607 2.27375Z" stroke="#C49287" stroke-width="0.5" mask="url(#path-1-outside-1_760_1709)"/>
<path d="M75.0432 5.05775V7.43375C75.9792 5.92175 77.5392 4.81775 79.7712 4.81775C83.0352 4.81775 84.8352 7.19375 84.8352 10.8177V20.6578H81.2352V11.2257C81.2352 9.06575 80.3232 7.88975 78.2832 7.88975C75.5712 7.88975 75.0432 9.95375 75.0432 11.3458V20.6578H71.4432V5.05775H75.0432Z" stroke="#C49287" stroke-width="0.5" mask="url(#path-1-outside-1_760_1709)"/>
<path d="M93.7272 20.6578V0.83375H102.535C107.167 0.83375 109.423 2.82575 109.423 7.36175V7.60175C109.423 12.0897 107.287 14.1537 102.535 14.1537H97.4712V20.6578H93.7272ZM97.4712 10.9618H102.607C104.767 10.9618 105.583 10.0977 105.583 8.17775V6.73775C105.583 4.84175 104.767 4.00175 102.607 4.00175H97.4712V10.9618Z" stroke="#C49287" stroke-width="0.5" mask="url(#path-1-outside-1_760_1709)"/>
<path d="M110.531 13.7458V11.9218C110.531 7.55375 112.883 4.81775 117.803 4.81775C122.267 4.81775 124.763 7.36175 124.763 12.0177V13.7458H114.275V14.1058C114.275 16.3138 115.235 17.8018 117.827 17.8018C119.795 17.8018 120.539 16.9138 120.707 15.8818L120.755 15.3298H124.667L124.643 15.5697C124.355 18.7617 122.099 20.8978 117.803 20.8978C112.883 20.8978 110.531 18.1618 110.531 13.7458ZM114.299 11.1298H121.019L120.995 10.4818C120.707 8.82575 119.603 7.91375 117.683 7.91375C115.427 7.91375 114.443 9.20975 114.299 11.1298Z" stroke="#C49287" stroke-width="0.5" mask="url(#path-1-outside-1_760_1709)"/>
<path d="M136.425 20.6578V18.2817C135.201 20.1777 133.161 20.8978 130.929 20.8978C128.025 20.8978 126.273 19.5538 126.273 16.7938C126.273 13.7698 128.889 12.6417 131.217 12.0177L132.921 11.5858C135.009 11.0578 136.329 10.6977 136.329 9.49775V9.37775C136.329 8.56175 135.633 7.84175 133.617 7.84175C131.313 7.84175 130.401 8.70575 130.401 10.1698V10.9137H126.777V10.4578C126.777 6.78575 129.105 4.81775 133.569 4.81775C138.345 4.81775 139.929 6.88175 139.929 10.0738V20.6578H136.425ZM129.897 16.3618C129.897 17.4178 130.593 17.8738 132.057 17.8738C134.313 17.8738 136.017 16.6018 136.329 14.4418V12.6178C135.969 13.4817 134.865 13.7218 133.521 14.1537L131.985 14.5618C130.593 14.9698 129.897 15.4258 129.897 16.3618Z" stroke="#C49287" stroke-width="0.5" mask="url(#path-1-outside-1_760_1709)"/>
<path d="M152.413 10.5778C152.317 9.25775 151.429 7.91375 149.149 7.91375C146.605 7.91375 145.645 9.42575 145.645 11.6578V14.1058C145.645 16.3138 146.605 17.8018 149.173 17.8018C151.597 17.8018 152.341 16.4578 152.437 15.1378L152.485 14.1058H156.157L156.133 14.8258C155.893 18.1858 153.733 20.8978 149.101 20.8978C144.301 20.8978 141.949 18.1618 141.949 13.7458V11.9218C141.949 7.55375 144.301 4.81775 149.101 4.81775C153.709 4.81775 155.917 7.52975 156.133 10.8898L156.157 11.6578H152.485L152.413 10.5778Z" stroke="#C49287" stroke-width="0.5" mask="url(#path-1-outside-1_760_1709)"/>
<path d="M157.647 13.7458V11.9218C157.647 7.55375 159.999 4.81775 164.919 4.81775C169.383 4.81775 171.879 7.36175 171.879 12.0177V13.7458H161.391V14.1058C161.391 16.3138 162.351 17.8018 164.943 17.8018C166.911 17.8018 167.655 16.9138 167.823 15.8818L167.871 15.3298H171.783L171.759 15.5697C171.471 18.7617 169.215 20.8978 164.919 20.8978C159.999 20.8978 157.647 18.1618 157.647 13.7458ZM161.415 11.1298H168.135L168.111 10.4818C167.823 8.82575 166.719 7.91375 164.799 7.91375C162.543 7.91375 161.559 9.20975 161.415 11.1298Z" stroke="#C49287" stroke-width="0.5" mask="url(#path-1-outside-1_760_1709)"/>
<g opacity="0.2">
<path d="M183.878 21.064V1.24H190.958C195.59 1.24 198.662 3.328 198.662 9.544V12.76C198.662 18.952 195.566 21.064 190.958 21.064H183.878ZM185.63 19.552H190.91C195.134 19.552 196.838 17.584 196.838 12.808V9.496C196.838 4.696 195.134 2.752 190.91 2.752H185.63V19.552Z" fill="#111113"/>
<path d="M201.796 14.392V12.112C201.796 7.84 203.98 5.224 208.276 5.224C212.14 5.224 214.492 7.36 214.492 11.848V13.48H203.524V14.464C203.524 18.04 205.18 19.816 208.252 19.816C210.868 19.816 212.332 18.544 212.548 16.288L212.572 15.976H214.324V16.216C214.036 19.216 212.068 21.304 208.252 21.304C203.98 21.304 201.796 18.712 201.796 14.392ZM203.524 12.136H212.764V11.344C212.692 7.984 210.94 6.712 208.276 6.712C205.156 6.712 203.524 8.44 203.524 12.064V12.136Z" fill="#111113"/>
<path d="M225.528 12.736C228.408 13.6 229.44 14.872 229.44 16.936C229.44 19.432 227.856 21.304 223.776 21.304C218.928 21.304 217.176 19.192 217.176 16.096V15.544H218.904V16.072C218.904 18.736 220.416 19.84 223.752 19.84C226.392 19.84 227.712 18.88 227.712 17.032C227.712 15.688 226.992 14.8 224.76 14.104L221.208 12.928C218.808 12.256 217.704 11.08 217.704 9.208C217.704 7.024 219.384 5.224 223.104 5.224C227.544 5.224 229.176 7.264 229.176 10.12V10.552H227.448V10.12C227.448 7.624 225.888 6.688 223.152 6.688C221.016 6.688 219.432 7.504 219.432 9.112C219.432 10.24 220.008 10.912 221.856 11.512L225.528 12.736Z" fill="#111113"/>
<path d="M233.056 5.464H234.736V21.064H233.056V5.464ZM232.576 2.224C232.576 1.528 233.08 1 233.896 1C234.688 1 235.192 1.528 235.192 2.224C235.192 2.848 234.688 3.4 233.896 3.4C233.08 3.4 232.576 2.848 232.576 2.224Z" fill="#111113"/>
<path d="M249.621 20.416V18.496C249.069 19.624 247.509 21.304 244.581 21.304C240.789 21.304 238.509 18.616 238.509 14.584V11.92C238.509 7.792 240.813 5.224 244.557 5.224C247.509 5.224 248.973 6.856 249.621 7.936V5.464H251.301V20.656C251.301 24.688 250.101 26.488 246.309 26.488H239.253V25.024H246.165C248.901 25.024 249.621 23.848 249.621 20.416ZM240.237 14.536C240.237 17.632 241.773 19.816 244.869 19.816C247.869 19.816 249.621 17.728 249.621 14.56V11.968C249.621 8.848 247.917 6.712 244.845 6.712C241.725 6.712 240.237 8.872 240.237 11.992V14.536Z" fill="#111113"/>
<path d="M257.516 5.464V8.128C258.212 6.784 259.7 5.224 262.58 5.224C265.916 5.224 267.86 7.264 267.86 11.008V21.064H266.156V11.152C266.156 8.2 264.788 6.688 262.196 6.688C258.332 6.688 257.516 9.88 257.516 11.464V21.064H255.836V5.464H257.516Z" fill="#111113"/>
<path d="M286.238 21.304C281.51 21.304 279.158 19.192 279.158 15.664V15.448C279.158 13.144 280.286 11.512 282.278 10.912C280.382 10.288 279.326 8.776 279.326 6.616V6.376C279.326 3.856 281.318 1 286.334 1C290.798 1 293.198 3.112 293.198 6.808V7.144H289.526V6.616C289.526 4.96 288.542 4.024 286.31 4.024C284.078 4.024 283.094 4.936 283.094 6.352V7.216C283.094 8.728 284.102 9.544 286.286 9.544H289.526V8.272H293.198V9.544H294.95V12.424H293.198V15.592C293.198 19.312 290.87 21.304 286.238 21.304ZM282.926 15.832C282.926 17.392 283.886 18.28 286.238 18.28C288.542 18.28 289.526 17.392 289.526 15.784V12.424H286.19C283.982 12.424 282.926 13.336 282.926 14.848V15.832Z" fill="#111113"/>
<path d="M306.37 21.064V1.24H313.45C318.082 1.24 321.154 3.328 321.154 9.544V12.76C321.154 18.952 318.058 21.064 313.45 21.064H306.37ZM308.122 19.552H313.402C317.626 19.552 319.33 17.584 319.33 12.808V9.496C319.33 4.696 317.626 2.752 313.402 2.752H308.122V19.552Z" fill="#111113"/>
<path d="M324.288 14.392V12.112C324.288 7.84 326.472 5.224 330.768 5.224C334.632 5.224 336.984 7.36 336.984 11.848V13.48H326.016V14.464C326.016 18.04 327.672 19.816 330.744 19.816C333.36 19.816 334.824 18.544 335.04 16.288L335.064 15.976H336.816V16.216C336.528 19.216 334.56 21.304 330.744 21.304C326.472 21.304 324.288 18.712 324.288 14.392ZM326.016 12.136H335.256V11.344C335.184 7.984 333.432 6.712 330.768 6.712C327.648 6.712 326.016 8.44 326.016 12.064V12.136Z" fill="#111113"/>
<path d="M338.928 5.464H340.704L345.504 19.528L350.28 5.464H352.056L346.584 21.064H344.4L338.928 5.464Z" fill="#111113"/>
<path d="M353.935 14.392V12.112C353.935 7.84 356.119 5.224 360.415 5.224C364.279 5.224 366.631 7.36 366.631 11.848V13.48H355.663V14.464C355.663 18.04 357.319 19.816 360.391 19.816C363.007 19.816 364.471 18.544 364.687 16.288L364.711 15.976H366.463V16.216C366.175 19.216 364.207 21.304 360.391 21.304C356.119 21.304 353.935 18.712 353.935 14.392ZM355.663 12.136H364.903V11.344C364.831 7.984 363.079 6.712 360.415 6.712C357.295 6.712 355.663 8.44 355.663 12.064V12.136Z" fill="#111113"/>
<path d="M370.371 1.24H372.051V21.064H370.371V1.24Z" fill="#111113"/>
<path d="M382.257 21.304C378.009 21.304 375.825 18.712 375.825 14.368V12.16C375.825 7.84 378.009 5.224 382.257 5.224C386.529 5.224 388.713 7.84 388.713 12.16V14.368C388.713 18.712 386.529 21.304 382.257 21.304ZM377.553 14.416C377.553 18.04 379.161 19.816 382.257 19.816C385.353 19.816 386.985 18.04 386.985 14.416V12.112C386.985 8.488 385.353 6.712 382.257 6.712C379.161 6.712 377.553 8.488 377.553 12.112V14.416Z" fill="#111113"/>
<path d="M394.152 5.464V8.08C394.68 6.952 396.24 5.224 399.216 5.224C403.008 5.224 405.288 7.912 405.288 11.944V14.608C405.288 18.736 402.984 21.304 399.24 21.304C396.24 21.304 394.776 19.624 394.152 18.544V26.488H392.472V5.464H394.152ZM394.176 14.56C394.176 17.68 395.88 19.816 398.952 19.816C402.072 19.816 403.56 17.656 403.56 14.536V11.992C403.56 8.896 402.024 6.712 398.928 6.712C395.928 6.712 394.176 8.8 394.176 11.968V14.56Z" fill="#111113"/>
<path d="M427.174 10.912C427.174 9.304 426.982 6.688 423.814 6.688C420.502 6.688 419.782 9.568 419.782 11.104V21.064H418.102V10.912C418.102 9.4 417.91 6.688 414.718 6.688C411.43 6.688 410.71 9.568 410.71 11.08V21.064H409.03V5.464H410.71V7.768C411.286 6.496 412.582 5.224 415.15 5.224C417.79 5.224 418.99 6.568 419.446 8.104C420.238 6.568 421.51 5.224 424.174 5.224C427.894 5.224 428.854 7.84 428.854 10.672V21.064H427.174V10.912Z" fill="#111113"/>
<path d="M432.46 14.392V12.112C432.46 7.84 434.644 5.224 438.94 5.224C442.804 5.224 445.156 7.36 445.156 11.848V13.48H434.188V14.464C434.188 18.04 435.844 19.816 438.916 19.816C441.532 19.816 442.996 18.544 443.212 16.288L443.236 15.976H444.988V16.216C444.7 19.216 442.732 21.304 438.916 21.304C434.644 21.304 432.46 18.712 432.46 14.392ZM434.188 12.136H443.428V11.344C443.356 7.984 441.604 6.712 438.94 6.712C435.82 6.712 434.188 8.44 434.188 12.064V12.136Z" fill="#111113"/>
<path d="M450.576 5.464V8.128C451.272 6.784 452.76 5.224 455.64 5.224C458.976 5.224 460.92 7.264 460.92 11.008V21.064H459.216V11.152C459.216 8.2 457.848 6.688 455.256 6.688C451.392 6.688 450.576 9.88 450.576 11.464V21.064H448.896V5.464H450.576Z" fill="#111113"/>
<path d="M472.5 5.464V6.928H468.156V16.36C468.156 18.952 468.324 19.6 470.244 19.6H472.5V21.064H469.788C466.812 21.064 466.476 19.528 466.476 16.648V6.928H463.092V5.464H463.884C466.092 5.32 466.956 3.64 466.932 1.24H468.612C468.612 3.664 467.652 5.152 466.644 5.464H472.5Z" fill="#111113"/>
</g>
<defs>
<linearGradient id="paint0_linear_760_1709" x1="-0.633301" y1="13.6563" x2="173.367" y2="13.6563" gradientUnits="userSpaceOnUse">
<stop stop-color="#FFB800" stop-opacity="0"/>
<stop offset="1" stop-color="#1400FF"/>
</linearGradient>
<linearGradient id="paint1_linear_760_1709" x1="-0.633301" y1="13.6563" x2="173.367" y2="13.6563" gradientUnits="userSpaceOnUse">
<stop stop-color="#FFB800" stop-opacity="0"/>
<stop offset="1" stop-color="#1400FF"/>
</linearGradient>
<linearGradient id="paint2_linear_760_1709" x1="-0.633301" y1="13.6563" x2="173.367" y2="13.6563" gradientUnits="userSpaceOnUse">
<stop stop-color="#FFB800" stop-opacity="0"/>
<stop offset="1" stop-color="#1400FF"/>
</linearGradient>
<linearGradient id="paint3_linear_760_1709" x1="-0.633301" y1="13.6563" x2="173.367" y2="13.6563" gradientUnits="userSpaceOnUse">
<stop stop-color="#FFB800" stop-opacity="0"/>
<stop offset="1" stop-color="#1400FF"/>
</linearGradient>
<linearGradient id="paint4_linear_760_1709" x1="-0.633301" y1="13.6563" x2="173.367" y2="13.6563" gradientUnits="userSpaceOnUse">
<stop stop-color="#FFB800" stop-opacity="0"/>
<stop offset="1" stop-color="#1400FF"/>
</linearGradient>
<linearGradient id="paint5_linear_760_1709" x1="-0.633301" y1="13.6563" x2="173.367" y2="13.6563" gradientUnits="userSpaceOnUse">
<stop stop-color="#FFB800" stop-opacity="0"/>
<stop offset="1" stop-color="#1400FF"/>
</linearGradient>
<linearGradient id="paint6_linear_760_1709" x1="-0.633301" y1="13.6563" x2="173.367" y2="13.6563" gradientUnits="userSpaceOnUse">
<stop stop-color="#FFB800" stop-opacity="0"/>
<stop offset="1" stop-color="#1400FF"/>
</linearGradient>
<linearGradient id="paint7_linear_760_1709" x1="-0.633301" y1="13.6563" x2="173.367" y2="13.6563" gradientUnits="userSpaceOnUse">
<stop stop-color="#FFB800" stop-opacity="0"/>
<stop offset="1" stop-color="#1400FF"/>
</linearGradient>
<linearGradient id="paint8_linear_760_1709" x1="-0.633301" y1="13.6563" x2="173.367" y2="13.6563" gradientUnits="userSpaceOnUse">
<stop stop-color="#FFB800" stop-opacity="0"/>
<stop offset="1" stop-color="#1400FF"/>
</linearGradient>
<linearGradient id="paint9_linear_760_1709" x1="-0.633301" y1="13.6563" x2="173.367" y2="13.6563" gradientUnits="userSpaceOnUse">
<stop stop-color="#FFB800" stop-opacity="0"/>
<stop offset="1" stop-color="#1400FF"/>
</linearGradient>
<linearGradient id="paint10_linear_760_1709" x1="-0.633301" y1="13.6563" x2="173.367" y2="13.6563" gradientUnits="userSpaceOnUse">
<stop stop-color="#FFB800" stop-opacity="0"/>
<stop offset="1" stop-color="#1400FF"/>
</linearGradient>
</defs>
</svg>
