<svg width="164" height="22" viewBox="0 0 164 22" fill="none" xmlns="http://www.w3.org/2000/svg">
<path d="M0.728 21V1.176H4.976L10.064 14.184L15.152 1.176H19.4V21H15.848V8.424L10.88 21H9.248L4.28 8.424V21H0.728ZM30.7055 21V18.624C29.4815 20.52 27.4415 21.24 25.2095 21.24C22.3055 21.24 20.5535 19.896 20.5535 17.136C20.5535 14.112 23.1695 12.984 25.4975 12.36L27.2015 11.928C29.2895 11.4 30.6095 11.04 30.6095 9.84V9.72C30.6095 8.904 29.9135 8.184 27.8975 8.184C25.5935 8.184 24.6815 9.048 24.6815 10.512V11.256H21.0575V10.8C21.0575 7.128 23.3855 5.16 27.8495 5.16C32.6255 5.16 34.2095 7.224 34.2095 10.416V21H30.7055ZM24.1775 16.704C24.1775 17.76 24.8735 18.216 26.3375 18.216C28.5935 18.216 30.2975 16.944 30.6095 14.784V12.96C30.2495 13.824 29.1455 14.064 27.8015 14.496L26.2655 14.904C24.8735 15.312 24.1775 15.768 24.1775 16.704ZM39.4458 5.4V7.728C40.1178 6.216 41.7738 5.16 43.8138 5.16C46.4058 5.16 48.4218 6.624 48.4218 10.512V12.48H44.7258V10.92C44.7258 9.072 44.0778 8.232 42.4698 8.232C40.1898 8.232 39.4458 9.816 39.4458 11.256V21H35.8218V5.4H39.4458ZM60.4782 5.4V8.52H55.9422V15.72C55.9422 17.424 56.3502 17.88 57.4062 17.88H60.4782V21H56.4702C53.2542 21 52.3662 19.392 52.3662 16.44V8.52H48.7422V5.4H50.3982C52.2462 5.256 52.7502 3.816 52.7022 1.176H56.3022C56.3022 3.264 55.9422 5.088 54.7422 5.4H60.4782ZM62.354 5.4H65.978V21H62.354V5.4ZM61.994 2.616C61.994 1.608 62.69 0.935999 64.178 0.935999C65.666 0.935999 66.362 1.608 66.362 2.616C66.362 3.552 65.666 4.248 64.178 4.248C62.69 4.248 61.994 3.552 61.994 2.616ZM71.3165 5.4V7.776C72.2525 6.264 73.8125 5.16 76.0445 5.16C79.3085 5.16 81.1085 7.536 81.1085 11.16V21H77.5085V11.568C77.5085 9.408 76.5965 8.232 74.5565 8.232C71.8445 8.232 71.3165 10.296 71.3165 11.688V21H67.7165V5.4H71.3165ZM89.5205 21V1.176H98.3285C102.961 1.176 105.217 3.168 105.217 7.704V7.944C105.217 12.432 103.081 14.496 98.3285 14.496H93.2645V21H89.5205ZM93.2645 11.304H98.4005C100.561 11.304 101.377 10.44 101.377 8.52V7.08C101.377 5.184 100.561 4.344 98.4005 4.344H93.2645V11.304ZM105.604 14.088V12.264C105.604 7.896 107.956 5.16 112.876 5.16C117.34 5.16 119.836 7.704 119.836 12.36V14.088H109.348V14.448C109.348 16.656 110.308 18.144 112.9 18.144C114.868 18.144 115.612 17.256 115.78 16.224L115.828 15.672H119.74L119.716 15.912C119.428 19.104 117.172 21.24 112.876 21.24C107.956 21.24 105.604 18.504 105.604 14.088ZM109.372 11.472H116.092L116.068 10.824C115.78 9.168 114.676 8.256 112.756 8.256C110.5 8.256 109.516 9.552 109.372 11.472ZM130.538 21V18.624C129.314 20.52 127.274 21.24 125.042 21.24C122.138 21.24 120.386 19.896 120.386 17.136C120.386 14.112 123.002 12.984 125.33 12.36L127.034 11.928C129.122 11.4 130.442 11.04 130.442 9.84V9.72C130.442 8.904 129.746 8.184 127.73 8.184C125.426 8.184 124.514 9.048 124.514 10.512V11.256H120.89V10.8C120.89 7.128 123.218 5.16 127.682 5.16C132.458 5.16 134.042 7.224 134.042 10.416V21H130.538ZM124.01 16.704C124.01 17.76 124.706 18.216 126.17 18.216C128.426 18.216 130.13 16.944 130.442 14.784V12.96C130.082 13.824 128.978 14.064 127.634 14.496L126.098 14.904C124.706 15.312 124.01 15.768 124.01 16.704ZM145.326 10.92C145.23 9.6 144.342 8.256 142.062 8.256C139.518 8.256 138.558 9.768 138.558 12V14.448C138.558 16.656 139.518 18.144 142.086 18.144C144.51 18.144 145.254 16.8 145.35 15.48L145.398 14.448H149.07L149.046 15.168C148.806 18.528 146.646 21.24 142.014 21.24C137.214 21.24 134.862 18.504 134.862 14.088V12.264C134.862 7.896 137.214 5.16 142.014 5.16C146.622 5.16 148.83 7.872 149.046 11.232L149.07 12H145.398L145.326 10.92ZM149.6 14.088V12.264C149.6 7.896 151.952 5.16 156.872 5.16C161.336 5.16 163.832 7.704 163.832 12.36V14.088H153.344V14.448C153.344 16.656 154.304 18.144 156.896 18.144C158.864 18.144 159.608 17.256 159.776 16.224L159.824 15.672H163.736L163.712 15.912C163.424 19.104 161.168 21.24 156.872 21.24C151.952 21.24 149.6 18.504 149.6 14.088ZM153.368 11.472H160.088L160.064 10.824C159.776 9.168 158.672 8.256 156.752 8.256C154.496 8.256 153.512 9.552 153.368 11.472Z" fill="#121214"/>
</svg>
