<svg width="294" height="28" viewBox="0 0 294 28" fill="none" xmlns="http://www.w3.org/2000/svg">
<path d="M1.728 21V1.176H5.976L11.064 14.184L16.152 1.176H20.4V21H16.848V8.424L11.88 21H10.248L5.28 8.424V21H1.728ZM31.7055 21V18.624C30.4815 20.52 28.4415 21.24 26.2095 21.24C23.3055 21.24 21.5535 19.896 21.5535 17.136C21.5535 14.112 24.1695 12.984 26.4975 12.36L28.2015 11.928C30.2895 11.4 31.6095 11.04 31.6095 9.84V9.72C31.6095 8.904 30.9135 8.184 28.8975 8.184C26.5935 8.184 25.6815 9.048 25.6815 10.512V11.256H22.0575V10.8C22.0575 7.128 24.3855 5.16 28.8495 5.16C33.6255 5.16 35.2095 7.224 35.2095 10.416V21H31.7055ZM25.1775 16.704C25.1775 17.76 25.8735 18.216 27.3375 18.216C29.5935 18.216 31.2975 16.944 31.6095 14.784V12.96C31.2495 13.824 30.1455 14.064 28.8015 14.496L27.2655 14.904C25.8735 15.312 25.1775 15.768 25.1775 16.704ZM40.4458 5.4V7.728C41.1178 6.216 42.7738 5.16 44.8138 5.16C47.4058 5.16 49.4218 6.624 49.4218 10.512V12.48H45.7258V10.92C45.7258 9.072 45.0778 8.232 43.4698 8.232C41.1898 8.232 40.4458 9.816 40.4458 11.256V21H36.8218V5.4H40.4458ZM61.4782 5.4V8.52H56.9422V15.72C56.9422 17.424 57.3502 17.88 58.4062 17.88H61.4782V21H57.4702C54.2542 21 53.3662 19.392 53.3662 16.44V8.52H49.7422V5.4H51.3982C53.2462 5.256 53.7502 3.816 53.7022 1.176H57.3022C57.3022 3.264 56.9422 5.088 55.7422 5.4H61.4782ZM63.354 5.4H66.978V21H63.354V5.4ZM62.994 2.616C62.994 1.608 63.69 0.935999 65.178 0.935999C66.666 0.935999 67.362 1.608 67.362 2.616C67.362 3.552 66.666 4.248 65.178 4.248C63.69 4.248 62.994 3.552 62.994 2.616ZM72.3165 5.4V7.776C73.2525 6.264 74.8125 5.16 77.0445 5.16C80.3085 5.16 82.1085 7.536 82.1085 11.16V21H78.5085V11.568C78.5085 9.408 77.5965 8.232 75.5565 8.232C72.8445 8.232 72.3165 10.296 72.3165 11.688V21H68.7165V5.4H72.3165ZM90.5205 21V1.176H99.3285C103.961 1.176 106.217 3.168 106.217 7.704V7.944C106.217 12.432 104.081 14.496 99.3285 14.496H94.2645V21H90.5205ZM94.2645 11.304H99.4005C101.561 11.304 102.377 10.44 102.377 8.52V7.08C102.377 5.184 101.561 4.344 99.4005 4.344H94.2645V11.304ZM106.604 14.088V12.264C106.604 7.896 108.956 5.16 113.876 5.16C118.34 5.16 120.836 7.704 120.836 12.36V14.088H110.348V14.448C110.348 16.656 111.308 18.144 113.9 18.144C115.868 18.144 116.612 17.256 116.78 16.224L116.828 15.672H120.74L120.716 15.912C120.428 19.104 118.172 21.24 113.876 21.24C108.956 21.24 106.604 18.504 106.604 14.088ZM110.372 11.472H117.092L117.068 10.824C116.78 9.168 115.676 8.256 113.756 8.256C111.5 8.256 110.516 9.552 110.372 11.472ZM131.538 21V18.624C130.314 20.52 128.274 21.24 126.042 21.24C123.138 21.24 121.386 19.896 121.386 17.136C121.386 14.112 124.002 12.984 126.33 12.36L128.034 11.928C130.122 11.4 131.442 11.04 131.442 9.84V9.72C131.442 8.904 130.746 8.184 128.73 8.184C126.426 8.184 125.514 9.048 125.514 10.512V11.256H121.89V10.8C121.89 7.128 124.218 5.16 128.682 5.16C133.458 5.16 135.042 7.224 135.042 10.416V21H131.538ZM125.01 16.704C125.01 17.76 125.706 18.216 127.17 18.216C129.426 18.216 131.13 16.944 131.442 14.784V12.96C131.082 13.824 129.978 14.064 128.634 14.496L127.098 14.904C125.706 15.312 125.01 15.768 125.01 16.704ZM146.326 10.92C146.23 9.6 145.342 8.256 143.062 8.256C140.518 8.256 139.558 9.768 139.558 12V14.448C139.558 16.656 140.518 18.144 143.086 18.144C145.51 18.144 146.254 16.8 146.35 15.48L146.398 14.448H150.07L150.046 15.168C149.806 18.528 147.646 21.24 143.014 21.24C138.214 21.24 135.862 18.504 135.862 14.088V12.264C135.862 7.896 138.214 5.16 143.014 5.16C147.622 5.16 149.83 7.872 150.046 11.232L150.07 12H146.398L146.326 10.92ZM150.6 14.088V12.264C150.6 7.896 152.952 5.16 157.872 5.16C162.336 5.16 164.832 7.704 164.832 12.36V14.088H154.344V14.448C154.344 16.656 155.304 18.144 157.896 18.144C159.864 18.144 160.608 17.256 160.776 16.224L160.824 15.672H164.736L164.712 15.912C164.424 19.104 162.168 21.24 157.872 21.24C152.952 21.24 150.6 18.504 150.6 14.088ZM154.368 11.472H161.088L161.064 10.824C160.776 9.168 159.672 8.256 157.752 8.256C155.496 8.256 154.512 9.552 154.368 11.472Z" fill="#FF9900"/>
<rect opacity="0.2" x="185" y="4" width="1" height="20" fill="#FF9900"/>
<path d="M205.987 11.5V2.827H209.085C211.111 2.827 212.455 3.7405 212.455 6.46V7.867C212.455 10.576 211.101 11.5 209.085 11.5H205.987ZM206.754 10.8385H209.064C210.912 10.8385 211.657 9.9775 211.657 7.888V6.439C211.657 4.339 210.912 3.4885 209.064 3.4885H206.754V10.8385ZM214.277 11.5V2.827H219.632V3.499H215.044V6.8275H219.443V7.4995H215.044V10.828H219.632V11.5H214.277ZM224.274 11.605C222.038 11.605 220.914 10.6285 220.914 8.7805V8.4445H221.712V8.8225C221.712 10.2925 222.563 10.9225 224.295 10.9225C225.765 10.9225 226.448 10.4395 226.448 9.316V9.274C226.448 8.1505 225.776 7.8565 224.831 7.5625L223.182 7.048C222.153 6.7015 221.198 6.229 221.198 4.9165C221.198 3.52 222.258 2.722 224.064 2.722C226.038 2.722 227.099 3.625 227.099 5.284V5.5255H226.301V5.2735C226.301 3.982 225.555 3.4045 224.075 3.4045C222.752 3.4045 221.996 3.877 221.996 4.864V4.885C221.996 5.8405 222.741 6.166 223.529 6.4075L225.23 6.943C226.248 7.279 227.246 7.7305 227.246 9.2635C227.246 10.8175 226.29 11.605 224.274 11.605ZM228.498 11.5V10.807H230.314V3.52H228.498V2.827H232.897V3.52H231.081V10.807H232.897V11.5H228.498ZM237.629 11.605C235.392 11.605 234.227 9.988 234.227 7.909V6.4075C234.227 4.339 235.382 2.722 237.744 2.722C239.876 2.722 241.052 4.0555 241.157 5.725L241.167 6.1555H240.348V5.683C240.264 4.2445 239.298 3.415 237.765 3.415C235.907 3.415 235.014 4.5805 235.014 6.3655V7.9405C235.014 9.7675 235.917 10.912 237.692 10.912C239.267 10.912 240.327 10.03 240.359 8.3605V7.804H237.167V7.153H241.167V11.5H240.611L240.537 9.946C240.044 10.9015 239.099 11.605 237.629 11.605ZM243.079 11.5V2.827H243.835L248.749 10.156V2.827H249.484V11.5H248.728L243.814 4.171V11.5H243.079ZM257.586 11.605C255.601 11.605 254.751 10.639 254.751 9.2215V9.085C254.751 8.161 255.213 7.3315 256.116 7.09C255.276 6.88 254.772 6.0715 254.772 5.095V4.9795C254.772 3.73 255.559 2.722 257.607 2.722C259.539 2.722 260.358 3.5725 260.358 5.179V5.326H259.623V5.158C259.623 3.8665 259.035 3.352 257.607 3.352C256.137 3.352 255.517 3.9085 255.517 4.99V5.158C255.517 6.4075 256.273 6.796 257.607 6.796H259.623V6.082H260.358V6.796H261.114V7.405H260.358V9.253C260.358 10.765 259.507 11.605 257.586 11.605ZM255.507 9.253C255.507 10.3975 256.116 10.975 257.596 10.975C259.003 10.975 259.623 10.4605 259.623 9.253V7.405H257.607C256.263 7.405 255.507 7.825 255.507 9.043V9.253ZM205.987 22.5V13.827H209.085C211.111 13.827 212.455 14.7405 212.455 17.46V18.867C212.455 21.576 211.101 22.5 209.085 22.5H205.987ZM206.754 21.8385H209.064C210.912 21.8385 211.657 20.9775 211.657 18.888V17.439C211.657 15.339 210.912 14.4885 209.064 14.4885H206.754V21.8385ZM214.277 22.5V13.827H219.632V14.499H215.044V17.8275H219.443V18.4995H215.044V21.828H219.632V22.5H214.277ZM223.509 22.5L220.58 13.827H221.399L223.95 21.6075L223.992 21.7125L224.024 21.6075L226.565 13.827H227.384L224.465 22.5H223.509ZM228.776 22.5V13.827H234.131V14.499H229.542V17.8275H233.942V18.4995H229.542V21.828H234.131V22.5H228.776ZM235.928 22.5V13.827H236.694V21.828H241.23V22.5H235.928ZM245.255 22.605C242.882 22.605 241.717 20.967 241.717 18.909V17.4075C241.717 15.3705 242.882 13.722 245.255 13.722C247.639 13.722 248.804 15.3705 248.804 17.4075V18.909C248.804 20.967 247.639 22.605 245.255 22.605ZM242.515 18.9405C242.515 20.757 243.46 21.9015 245.255 21.9015C247.061 21.9015 248.006 20.757 248.006 18.9405V17.376C248.006 15.591 247.061 14.4255 245.255 14.4255C243.46 14.4255 242.515 15.591 242.515 17.376V18.9405ZM250.601 22.5V13.827H254.192C256.029 13.827 256.932 14.751 256.932 16.599V16.725C256.932 18.5625 256.029 19.5285 254.192 19.5285H251.367V22.5H250.601ZM251.367 18.867H254.139C255.515 18.867 256.134 18.2265 256.134 16.767V16.5465C256.134 15.0975 255.515 14.4885 254.139 14.4885H251.367V18.867ZM258.542 22.5V13.827H259.424L262.385 21.3135L265.346 13.827H266.238V22.5H265.503V15.36L262.679 22.5H262.101L259.277 15.36V22.5H258.542ZM268.421 22.5V13.827H273.776V14.499H269.188V17.8275H273.587V18.4995H269.188V21.828H273.776V22.5H268.421ZM275.573 22.5V13.827H276.329L281.243 21.156V13.827H281.978V22.5H281.222L276.308 15.171V22.5H275.573ZM286.145 22.5V14.499H283.384V13.827H289.673V14.499H286.912V22.5H286.145Z" fill="#FF9900"/>
</svg>
